<svg width="48" height="48" viewBox="0 0 48 48" fill="none" xmlns="http://www.w3.org/2000/svg">
<path d="M17.9588 19.9236L2 2L14.4921 23.9986L2 45.9972L17.9588 28.0736C20.027 25.75 20.027 22.2458 17.9588 19.9222V19.9236Z" fill="#00A6FB"/>
<path d="M28.0758 17.9583L46 2L24.0007 14.4917L2.00139 2L19.9256 17.9583C22.2492 20.0264 25.7535 20.0264 28.0772 17.9583H28.0758Z" fill="#00A6FB"/>
<path d="M19.9242 30.0416L2 46L23.9993 33.5083L45.9986 46L28.0744 30.0416C25.7508 27.9736 22.2465 27.9736 19.9228 30.0416H19.9242Z" fill="#00A6FB"/>
<path d="M46 2.00139L30.0412 19.925C27.973 22.2486 27.973 25.7528 30.0412 28.0764L46 46L33.5079 24.0014L46 2.00278V2.00139Z" fill="#00A6FB"/>
</svg>
