<svg width="152" height="152" viewBox="0 0 152 152" fill="none" xmlns="http://www.w3.org/2000/svg">
<path fill-rule="evenodd" clip-rule="evenodd" d="M124.081 17.608C104.472 17.9168 23.6812 18.0848 3.47321 17.828C2.2733 17.8129 2.18216 15.7678 3.42425 15.7678C24.2551 15.7934 96.2657 15.3965 124.042 15.9938C125.379 16.0209 125.016 17.5929 124.081 17.608Z" fill="#191919"/>
<path fill-rule="evenodd" clip-rule="evenodd" d="M100.019 76.3404C98.666 76.9244 97.2285 77.2888 95.7608 77.4197C95.9016 79.1447 95.883 80.879 95.705 82.6005C95.6857 82.6934 95.6341 82.7765 95.5593 82.835C95.4846 82.8936 95.3916 82.9238 95.2968 82.9204C95.2019 82.9169 95.1113 82.8801 95.0411 82.8163C94.9708 82.7526 94.9253 82.666 94.9126 82.5719C94.7718 81.3946 95.101 80.1194 94.8637 77.4777C93.1019 77.5252 92.2763 76.9791 90.7284 76.7689C86.8792 76.2433 83.1795 74.9305 79.8599 72.9124C79.7612 72.8368 79.6963 72.7254 79.6793 72.6023C79.6622 72.4792 79.6944 72.3543 79.7687 72.2548C83.1747 68.0954 85.7939 63.35 87.4977 58.2513C87.6989 57.675 88.3655 56.9007 88.3685 57.8927C88.3768 60.4357 88.08 62.9771 88.08 65.5238C88.08 70.1457 88.2028 75.09 92.7056 76.2515C95.467 76.9618 98.0371 76.0609 99.7462 75.6044C100.152 75.4922 100.453 76.1302 100.019 76.3404Z" fill="#191919"/>
<path fill-rule="evenodd" clip-rule="evenodd" d="M93.5001 66.4504C93.1054 67.215 94.4507 67.1246 95.2574 67.163C95.3592 67.1715 95.4548 67.2158 95.5271 67.288C95.5994 67.3602 95.6438 67.4557 95.6523 67.5576C95.6609 67.6594 95.6331 67.761 95.5739 67.8443C95.5147 67.9276 95.428 67.9872 95.329 68.0127C94.7955 68.0844 94.2533 68.0537 93.7313 67.9223C92.7988 67.7287 92.087 67.3852 92.5947 66.3405C92.923 65.6353 93.2958 64.9517 93.711 64.2939C93.7619 64.2142 93.8401 64.1558 93.931 64.1296C94.0218 64.1033 94.1191 64.111 94.2047 64.1512C94.2903 64.1914 94.3583 64.2614 94.3961 64.3481C94.4339 64.4348 94.4388 64.5322 94.41 64.6223C94.1534 65.2538 93.8492 65.865 93.5001 66.4504Z" fill="#191919"/>
<path fill-rule="evenodd" clip-rule="evenodd" d="M98.612 63.5062C98.621 63.9898 98.6572 64.7227 97.9446 64.7415C97.3706 64.7573 97.2094 64.2496 97.2124 63.571C97.2155 62.3484 98.5826 62.008 98.612 63.5062Z" fill="#191919"/>
<path fill-rule="evenodd" clip-rule="evenodd" d="M91.8916 63.4754C91.8796 63.9379 91.683 64.374 91.1489 64.3521C90.703 64.3341 90.5426 63.7315 90.5554 63.3345C90.5742 62.7485 90.7588 62.4494 91.1294 62.3681C91.6981 62.2431 91.9075 62.8954 91.8916 63.4754Z" fill="#191919"/>
<path fill-rule="evenodd" clip-rule="evenodd" d="M91.3759 60.0259C91.0775 59.9914 90.7753 60.041 90.5036 60.169C90.2318 60.2971 90.0012 60.4985 89.8378 60.7505C89.425 61.3606 88.9836 60.8597 89.1403 60.4982C89.3414 60.0586 89.6782 59.6951 90.1012 59.4611C90.5242 59.2271 91.0111 59.1349 91.4904 59.1981C91.5975 59.2163 91.6932 59.2755 91.7574 59.3631C91.8216 59.4507 91.8492 59.5599 91.8343 59.6675C91.8195 59.7751 91.7633 59.8727 91.6777 59.9396C91.5921 60.0065 91.4839 60.0374 91.3759 60.0259Z" fill="#191919"/>
<path fill-rule="evenodd" clip-rule="evenodd" d="M97.5129 59.9217C97.4188 59.9211 97.328 59.887 97.2567 59.8256C97.1855 59.7642 97.1384 59.6795 97.1239 59.5865C97.1094 59.4936 97.1284 59.3985 97.1776 59.3183C97.2268 59.2381 97.3029 59.178 97.3924 59.1488C97.9673 59.0256 98.5673 59.1145 99.0818 59.3991C99.5963 59.6838 99.9904 60.145 100.191 60.6975C100.316 61.1291 99.7394 61.4831 99.521 60.9988C99.3478 60.6262 99.0584 60.3199 98.6964 60.1257C98.3343 59.9315 97.919 59.8599 97.5129 59.9217Z" fill="#191919"/>
<path fill-rule="evenodd" clip-rule="evenodd" d="M93.9236 70.5026C94.2474 71.232 94.8221 71.8209 95.5434 72.1625C96.2646 72.5041 97.0845 72.5755 97.854 72.3638C98.6475 72.1077 99.3144 71.56 99.7198 70.8313C100.125 70.1027 100.239 69.2473 100.038 68.4379C99.9465 68.0613 99.609 67.9302 99.2038 68.2496C97.5082 69.5859 96.2533 69.7945 94.2497 69.8277C93.9243 69.8329 93.7337 70.1244 93.9236 70.5026Z" fill="#191919"/>
<path fill-rule="evenodd" clip-rule="evenodd" d="M39.1303 85.0092C39.3096 85.3489 38.8079 85.7135 38.5277 85.4611C36.906 83.9931 33.9367 81.9209 33.0991 79.9625C31.9692 77.3261 32.5861 74.0247 30.3505 71.8915C30.2699 71.8225 30.219 71.7252 30.2082 71.6197C30.1974 71.5142 30.2277 71.4086 30.2927 71.3248C30.3577 71.241 30.4525 71.1855 30.5573 71.1696C30.6622 71.1538 30.7691 71.179 30.8559 71.2399C33.3266 72.9777 32.8581 76.3801 34.0022 78.8477C35.1622 81.3462 37.8588 82.6056 39.1303 85.0092Z" fill="#191919"/>
<path fill-rule="evenodd" clip-rule="evenodd" d="M22.6067 81.1615C20.302 80.7044 18.1464 79.6838 16.3322 78.1907C15.7499 77.6778 16.4474 77.2642 16.8723 77.5512C18.6765 78.826 20.7414 79.684 22.9178 80.0633C25.042 80.3775 27.2045 80.322 29.3098 79.8991C29.8287 79.8298 29.8174 80.589 29.4604 80.8029C27.8364 81.7784 24.4295 81.563 22.6067 81.1615Z" fill="#191919"/>
<path fill-rule="evenodd" clip-rule="evenodd" d="M13.0296 79.9874C12.7073 79.6342 13.2496 79.1649 13.6036 79.421C16.021 81.2758 18.7966 82.6095 21.7552 83.3379C24.0661 83.8651 23.4251 84.9468 21.3507 84.5189C18.1723 83.9133 15.2628 82.3289 13.0296 79.9874Z" fill="#191919"/>
<path fill-rule="evenodd" clip-rule="evenodd" d="M22.0086 88.2408C19.2631 88.0818 15.4607 86.8164 13.3998 85.0101C13.3274 84.9441 13.2809 84.8543 13.2688 84.7569C13.2567 84.6596 13.2797 84.5612 13.3338 84.4794C13.3879 84.3976 13.4694 84.3378 13.5637 84.3108C13.658 84.2838 13.7588 84.2914 13.848 84.3322C16.9807 85.8673 18.6514 86.6469 22.1525 87.0815C24.1847 87.3346 24.1252 88.3635 22.0086 88.2408Z" fill="#191919"/>
<path fill-rule="evenodd" clip-rule="evenodd" d="M34.1424 91.7554C34.6945 92.132 34.0671 93.0592 33.5044 92.7263C30.5351 90.978 27.1538 92.0484 23.9284 92.0431C20.7835 92.0964 17.7026 91.1516 15.1283 89.3443C14.757 89.0663 15.166 88.5104 15.5584 88.6904C18.5059 90.179 21.7798 90.9041 25.0801 90.7995C28.1285 90.615 31.4322 89.9099 34.1424 91.7554Z" fill="#191919"/>
<path fill-rule="evenodd" clip-rule="evenodd" d="M148.416 136.293C118.267 136.66 32.4271 135.904 14.0917 135.69C12.9106 135.677 11.9736 134.344 14.0578 134.335C37.6342 134.213 113.306 134.242 148.372 134.565C149.753 134.574 149.756 136.276 148.416 136.293Z" fill="#38A1FF"/>
<path fill-rule="evenodd" clip-rule="evenodd" d="M90.3217 81.7949C83.6931 82.8495 70.9965 89.9367 64.0825 99.0803C70.6357 98.0883 89.9639 97.9188 95.5183 98.5703C93.4284 96.0254 91.1142 93.6734 88.6035 91.5426C89.5677 90.4376 90.4746 89.5782 91.2677 88.8219C89.6807 87.8427 87.0714 86.2805 85.9197 85.7427C87.2244 84.2559 88.7022 82.9306 90.3217 81.7949Z" fill="#38A1FF"/>
<path fill-rule="evenodd" clip-rule="evenodd" d="M104.815 89.1617C105.665 90.0087 106.39 90.9725 106.968 92.024C104.644 93.3557 100.137 95.8497 97.4175 98.7399C100.015 99.0803 101.711 100.34 102.615 104.163C103.004 105.803 103.54 108.434 104.072 111.388C108.993 110.312 113.995 109.651 119.026 109.41C118.144 107.15 116.963 105.017 115.517 103.068C115.207 102.657 115.782 102.136 116.125 102.535C117.872 104.54 119.224 106.857 120.109 109.365C122.363 109.232 124.623 109.264 126.872 109.461C127.384 109.519 127.39 110.285 126.86 110.272C119.265 110.024 111.668 110.74 104.252 112.402C105.009 116.72 105.722 121.544 105.946 124.923C117.621 124.809 136.562 130.578 139.497 123.619C146.072 108.033 126.105 83.4348 111.898 81.2812C113.097 82.9411 113.937 84.8329 114.363 86.8356C112.807 87.3757 106.856 88.7926 104.815 89.1617Z" fill="#38A1FF"/>
<path fill-rule="evenodd" clip-rule="evenodd" d="M96.0754 93.5831C93.6876 87.6242 93.7524 84.4523 93.0715 81.5313C93.0558 81.4305 93.002 81.3396 92.9212 81.2773C92.8404 81.215 92.7388 81.1862 92.6374 81.1967C92.5359 81.2073 92.4424 81.2564 92.3761 81.3339C92.3099 81.4115 92.2759 81.5115 92.2813 81.6134C92.2572 85.1393 94.0537 91.0123 95.5127 94.3891C95.5589 94.4708 95.6237 94.5406 95.7019 94.5926C95.7801 94.6446 95.8695 94.6774 95.9627 94.6884C96.056 94.6994 96.1505 94.6883 96.2387 94.6559C96.3269 94.6235 96.4061 94.5708 96.4701 94.5021C101.195 87.9406 103.556 85.5701 108.974 81.3618C109.058 81.3021 109.116 81.2121 109.135 81.1107C109.155 81.0092 109.134 80.9042 109.078 80.8177C109.021 80.7312 108.933 80.67 108.833 80.6469C108.732 80.6237 108.626 80.6405 108.538 80.6937C103.51 84.0494 99.2599 88.4448 96.0754 93.5831Z" fill="#38A1FF"/>
<path fill-rule="evenodd" clip-rule="evenodd" d="M57.6584 99.7611C53.0109 96.9274 45.1328 89.9561 41.9029 85.5459C38.657 88.8568 35.7694 92.5008 33.2881 96.4174C39.1679 105.089 48.4794 114.443 54.3148 117.161C53.6369 114.27 53.4644 106.279 53.6369 103.728C53.8094 101.178 55.7316 100.158 57.6584 99.7611Z" fill="#38A1FF"/>
<path fill-rule="evenodd" clip-rule="evenodd" d="M31.0284 99.6285C32.4701 99.5682 31.7289 98.5574 31.1143 98.5453C22.9039 98.3842 14.1046 98.1838 7.91445 98.2802C8.39276 62.5111 8.10653 39.9417 8.30237 19.7873C8.30764 19.2532 7.50695 19.3353 7.48284 19.8438C6.70098 36.229 7.18155 80.3538 6.57896 98.1582C6.55786 98.7683 6.60005 99.1577 7.91972 99.2165C11.6159 99.3822 15.2179 99.389 18.9351 99.453C22.3511 99.5125 27.7179 99.7671 31.0284 99.6285Z" fill="#38A1FF"/>
<path fill-rule="evenodd" clip-rule="evenodd" d="M120.979 64.1262C121.341 56.7821 121.228 49.3408 121.261 41.9809C121.281 37.6302 121.478 25.9489 121.429 20.216C121.421 19.2233 120.397 19.7889 120.387 20.2914C120.189 30.0255 119.676 54.3311 120.048 64.1367C120.08 64.9623 120.942 64.9502 120.979 64.1262Z" fill="#38A1FF"/>
<path fill-rule="evenodd" clip-rule="evenodd" d="M19.8165 41.6797C19.8165 39.2919 19.8368 36.9057 19.8165 34.5179C30.5713 34.4561 41.3328 34.3951 52.0861 34.2008C52.0951 36.2903 52.0861 38.3798 52.0861 40.4693C41.8141 40.7321 31.3102 41.1193 21.0074 41.3038C20.3438 41.3159 20.4515 42.3072 21.0932 42.3154C31.4962 42.4412 42.2186 41.7776 52.654 41.5072C52.7921 41.4929 52.9193 41.4257 53.0089 41.3197C53.0984 41.2136 53.1435 41.077 53.1346 40.9385C53.1346 38.4988 53.1263 36.0583 53.1429 33.6185C53.1282 33.4794 53.0602 33.3513 52.9532 33.2612C52.8462 33.171 52.7085 33.1258 52.5689 33.1349C41.4579 33.1417 30.3393 33.2931 19.2282 33.4415C19.0861 33.4562 18.9553 33.5254 18.8632 33.6345C18.771 33.7437 18.7248 33.8843 18.7341 34.0268C18.7959 36.6029 18.9269 39.1729 19.0158 41.7475C19.0286 42.271 19.8157 42.1972 19.8165 41.6797Z" fill="#38A1FF"/>
<path fill-rule="evenodd" clip-rule="evenodd" d="M19.1905 58.8963C30.4228 58.4579 41.9873 58.4067 53.1511 57.6376C53.2329 57.6395 53.314 57.6232 53.3886 57.5898C53.4632 57.5564 53.5295 57.5069 53.5826 57.4447C53.6357 57.3825 53.6742 57.3093 53.6955 57.2304C53.7168 57.1514 53.7202 57.0688 53.7055 56.9883C53.5082 55.396 53.3101 53.8036 53.1029 52.2128C53.0163 51.5522 52.025 51.7782 52.0974 52.4267C52.248 53.8089 52.4152 55.1904 52.5794 56.5695C41.674 57.0298 30.6722 57.3409 19.8135 57.6889C19.8135 55.5293 19.8022 53.3668 19.8632 51.211C30.8416 51.0973 41.6318 50.9195 52.7308 51.0099C52.8379 51.0117 52.9414 50.9718 53.0196 50.8986C53.0979 50.8255 53.1446 50.7248 53.1499 50.6179C53.1553 50.5109 53.1189 50.4061 53.0485 50.3255C52.978 50.2449 52.8789 50.1948 52.7723 50.1858C41.6303 49.6729 30.4417 49.8988 19.253 49.9214C19.1663 49.9168 19.0795 49.9293 18.9977 49.9583C18.9158 49.9874 18.8405 50.0323 18.7761 50.0905C18.7117 50.1488 18.6594 50.2192 18.6224 50.2978C18.5853 50.3763 18.5641 50.4614 18.5601 50.5481C18.6527 53.119 18.6181 55.6988 18.6271 58.2726C18.6213 58.4295 18.6769 58.5824 18.7821 58.6989C18.8873 58.8154 19.0339 58.8862 19.1905 58.8963Z" fill="#38A1FF"/>
<path fill-rule="evenodd" clip-rule="evenodd" d="M52.2265 73.981C46.8333 74.0525 39.9721 73.9456 34.4395 74.2069C33.9763 74.2288 33.9974 75.1734 34.4516 75.1809C39.4328 75.266 46.9712 75.0197 52.7297 75.141C53.3662 75.1545 53.3956 74.5384 53.321 74.0804C52.9492 71.8324 52.9291 69.5403 53.2615 67.2862C53.2768 67.2049 53.2738 67.1212 53.2525 67.0413C53.2313 66.9613 53.1924 66.8871 53.1387 66.8242C53.085 66.7613 53.0179 66.7112 52.9423 66.6776C52.8667 66.644 52.7845 66.6278 52.7018 66.6301C41.7437 66.8892 30.7825 67.2945 19.8251 67.47C19.6778 67.48 19.5401 67.5468 19.441 67.6562C19.3418 67.7656 19.2889 67.9092 19.2934 68.0567C19.2738 70.4279 19.2783 72.8022 19.2617 75.1703C19.272 75.3263 19.3425 75.4722 19.4583 75.5772C19.5741 75.6822 19.7262 75.738 19.8824 75.733C23.046 75.617 25.537 75.6343 28.7013 75.4393C29.2286 75.4069 29.1842 74.4555 28.6614 74.454C25.6951 74.4457 23.4076 74.4781 20.442 74.5399C20.4307 72.5506 20.4285 70.5613 20.4149 68.572C30.9769 68.1953 41.5471 68.0296 52.1113 67.7344C51.8641 69.812 51.9029 71.9138 52.2265 73.981Z" fill="#38A1FF"/>
<path fill-rule="evenodd" clip-rule="evenodd" d="M77.8324 81.0044C78.331 81.1226 78.4666 80.3219 77.983 80.1803C72.7082 78.4998 68.2839 74.8511 65.6299 69.9928C59.5053 59.0542 63.2948 44.7193 73.2452 37.4475C82.0581 31.0065 100.99 31.1376 107.094 41.6656C107.463 42.3021 108.422 41.9541 108.115 41.277C103.342 30.758 83.9721 29.2515 74.4729 35.0514C63.2881 41.8833 58.1005 56.6589 63.6413 68.7687C66.4283 74.8609 71.6046 79.5295 77.8324 81.0044Z" fill="#38A1FF"/>
<path fill-rule="evenodd" clip-rule="evenodd" d="M120.891 83.2096C121.082 81.5856 120.912 77.259 120.919 74.7274C120.919 73.819 120.066 74.1526 120.035 74.533C119.854 77.4227 119.847 80.3206 120.013 83.2111C120.047 83.6427 120.841 83.6359 120.891 83.2096Z" fill="#38A1FF"/>
<path fill-rule="evenodd" clip-rule="evenodd" d="M123.592 127.759C119.096 127.232 109.772 126.654 103.718 126.554C103.718 123.078 100.393 103.203 98.2772 101.541C96.2509 99.9486 57.8116 99.6518 56.2245 102.671C54.138 106.645 57.5863 131.265 59.4905 131.915C62.5886 132.97 121.474 132.794 124.043 132.593C125.386 132.492 125.578 127.99 123.592 127.759ZM68.0903 103.912C65.8577 104.146 63.7215 104.454 61.4949 104.781C59.5674 105.063 59.431 105.467 59.2216 107.317C58.9562 109.513 58.8289 111.724 58.8405 113.937C58.8405 114.408 58.1558 114.531 58.0933 114.036C57.8051 111.497 57.8243 108.932 58.1505 106.398C58.366 104.735 58.9791 103.987 60.6362 103.649C63.0864 103.154 65.5876 102.958 68.085 103.065C68.1864 103.08 68.2792 103.13 68.3464 103.208C68.4137 103.285 68.4511 103.384 68.4517 103.486C68.4523 103.589 68.4162 103.688 68.3499 103.766C68.2836 103.844 68.1915 103.896 68.0903 103.912ZM77.9321 120.731C76.339 121.033 74.6134 120.171 73.9919 117.741C73.4519 115.632 74.4439 114.04 76.1959 113.592C80.3915 112.519 81.9243 119.968 77.9321 120.731Z" fill="#191919"/>
<path fill-rule="evenodd" clip-rule="evenodd" d="M121.484 70.4421C114.321 63.3443 118.591 53.3932 114.01 48.5778C113.143 47.6438 111.973 47.0479 110.709 46.8961C109.444 46.7444 108.166 47.0467 107.103 47.7492C103.574 42.0103 96.3764 40.6213 90.248 42.5307C83.569 44.6119 81.176 52.7658 86.5376 55.3901C89.3472 56.7655 99.2108 56.8822 102.295 56.2849C102.541 58.8384 103.497 61.2721 105.052 63.3119C105.212 63.504 105.435 63.7699 105.7 63.5379C105.987 63.2795 106.324 63.0835 106.69 62.9623C107.057 62.841 107.444 62.7972 107.829 62.8336C108.213 62.87 108.585 62.9858 108.922 63.1737C109.26 63.3616 109.554 63.6174 109.787 63.925C110.001 64.2418 110.151 64.5977 110.227 64.9725C110.304 65.3472 110.305 65.7334 110.232 66.1087C110.159 66.4841 110.012 66.8413 109.8 67.1598C109.589 67.4783 109.316 67.7518 108.998 67.9647C108.077 68.574 107.42 68.4852 106.388 68.4332C106.065 68.4174 106.005 68.6878 105.983 68.9348C105.665 72.5233 105.311 76.6179 105.859 80.1868C105.873 80.2858 105.925 80.3755 106.004 80.4367C106.084 80.4978 106.184 80.5257 106.283 80.5143C106.382 80.5029 106.473 80.4532 106.537 80.3757C106.6 80.2982 106.631 80.1991 106.622 80.0994C106.63 79.1322 106.593 78.1651 106.562 77.1971C111.605 77.7613 117.99 74.8116 121.499 71.4394C122.055 70.9113 121.657 70.6138 121.484 70.4421ZM94.3524 45.8894C93.1229 45.8674 91.9063 46.1436 90.8069 46.6947C89.5859 47.2807 87.513 48.7375 87.6524 50.265C87.6938 50.723 87.0355 51.0032 86.8645 50.5309C86.0397 48.2546 88.3356 46.4762 89.8661 45.6409C91.2296 44.8969 92.757 44.5047 94.3103 44.4997C96.2973 44.502 95.477 45.9369 94.3524 45.8894Z" fill="#191919"/>
</svg>
