<svg width="152" height="151" viewBox="0 0 152 151" fill="none" xmlns="http://www.w3.org/2000/svg">
<path d="M30.0057 82.3172C29.9598 82.2419 25.8629 74.8662 22.9682 69.9008C22.9017 69.731 22.7714 69.5939 22.6052 69.5188C22.439 69.4438 22.25 69.4368 22.0786 69.4993C16.6967 70.5027 12.0658 71.3448 5.09229 72.6946C7.25258 77.8249 5.46891 74.0067 10.9163 85.7174C10.9969 85.92 11.0775 86.0812 11.3608 86.0006C13.4239 85.5961 15.487 85.279 17.5486 84.8707C20.948 84.1875 29.2367 82.5191 30.0057 82.3172Z" fill="#38A1FF"/>
<path d="M57.788 51.054C57.6268 51.054 57.3828 50.7708 57.3436 50.5682C57.0928 49.2756 52.605 24.848 52.4905 24.442C52.3187 23.8394 52.5703 23.4628 53.2181 23.3875C55.4778 23.1246 87.999 19.6213 89.8602 19.4239C90.264 19.3818 90.5133 19.4624 90.6286 19.909C90.9713 21.2392 96.4466 44.2575 96.897 46.2378C96.9271 46.3561 96.9301 46.4796 96.9058 46.5992C96.8814 46.7188 96.8305 46.8313 96.7566 46.9285C96.6828 47.0257 96.588 47.1049 96.4793 47.1603C96.3705 47.2158 96.2507 47.2459 96.1287 47.2486C94.5108 47.3729 58.3544 51.0939 57.788 51.054Z" fill="#191919"/>
<path d="M30.6913 89.1119C30.5121 87.8585 30.0609 86.9079 31.1772 86.5644C32.0336 86.3 32.0261 86.3211 32.0261 84.8659C31.945 83.2729 32.4483 81.7052 33.4414 80.4571C34.0928 79.5103 34.9246 78.7014 35.8893 78.0769C36.8539 77.4523 37.9324 77.0243 39.0629 76.8175C40.9068 76.4288 41.3723 76.1848 46.3023 76.7768C48.0347 76.9847 52.8298 77.9549 55.0399 77.9903C57.759 78.034 60.1536 77.0774 59.325 74.4711C58.1907 70.8835 54.8591 69.3747 51.2767 67.1105C49.4787 65.9738 47.994 64.9547 49.2949 63.0257C49.9108 62.1747 50.7316 61.4931 51.6812 61.0439C54.322 59.6594 54.209 59.8304 55.5227 59.6278C55.5227 59.5472 55.5227 59.3852 55.6033 59.3453C56.1305 58.9408 55.9611 58.4565 55.8458 57.9699C55.6526 56.8818 55.694 55.7649 55.9671 54.6941C56.0481 54.399 56.2214 54.1375 56.4615 53.9478C56.7016 53.7581 56.996 53.6501 57.3018 53.6395C59.0441 53.5039 97.0624 49.5178 98.6773 49.3129C99.2769 49.2128 99.8914 49.2519 100.473 49.4272C101.055 49.6025 101.589 49.9092 102.034 50.3238C105.666 53.5213 112.538 58.8617 116.108 61.8099C116.454 62.0322 116.715 62.3652 116.847 62.7545C116.979 63.1439 116.975 63.5666 116.836 63.9536C116.665 64.453 116.514 66.1704 114.369 66.4205C107.857 67.1798 81.172 69.8462 72.1874 70.9098C67.4608 71.4687 62.512 68.2215 59.4478 64.6406C58.4469 63.5465 57.578 62.3385 56.8589 61.0416C56.7783 60.7991 56.2488 60.8352 56.1313 60.7177C55.8481 60.2726 55.4843 60.4345 55.1204 60.5558C53.1734 61.0252 51.412 62.0679 50.0639 63.5492C48.568 65.3712 51.654 66.1923 55.7261 68.928C57.9556 70.4255 60.3879 73.1093 60.3366 75.6816C60.3031 76.2549 60.1166 76.8088 59.7966 77.2857C59.4766 77.7625 59.0347 78.145 58.5168 78.3933C54.2407 80.2839 46.7459 77.1662 41.5305 77.5037C38.2915 77.7123 35.6032 78.9695 33.9273 81.8725C33.2299 83.0284 32.892 84.3656 32.9563 85.714C32.9563 86.0379 33.0369 86.2805 33.4414 86.361C34.2105 86.4424 34.3393 87.0872 34.496 87.6958C34.7099 88.5424 34.7001 88.5244 35.5505 88.4242C47.4909 87.0292 42.7063 87.3817 46.5915 87.0081C47.1541 86.9986 47.7079 87.1493 48.1881 87.4428C48.6682 87.7362 49.055 88.1602 49.3032 88.6652C51.0899 92.5678 57.5835 105.432 57.756 107.552C57.8358 108.017 57.7331 108.496 57.4694 108.887C57.2057 109.279 56.8012 109.554 56.3399 109.655C54.8166 110.301 53.231 110.789 51.6081 111.111C51.5192 111.132 35.7652 114.434 33.3277 114.67C32.5986 114.741 30.0518 114.873 29.0003 114.306C26.4875 113.521 24.6037 109.05 23.5408 106.623C18.8858 95.9927 18.9611 95.7012 18.7683 93.5605C18.7117 93.0653 18.8421 92.5669 19.1339 92.1628C19.4256 91.7588 19.8578 91.4782 20.3456 91.3761C22.8087 90.754 25.2763 90.2297 27.7469 89.6776C29.3265 89.3235 30.5445 89.2595 30.6913 89.1119ZM20.9444 96.6752C20.8705 96.6882 20.8005 96.7179 20.7398 96.762C20.6791 96.8062 20.6293 96.8637 20.5942 96.93C20.5591 96.9963 20.5396 97.0698 20.5373 97.1449C20.5349 97.2199 20.5497 97.2945 20.5806 97.3629C21.8408 100.209 27.3349 111.68 27.5774 112.003C27.8787 112.304 55.8888 106.763 55.9686 106.745C56.0535 106.727 56.1332 106.69 56.2019 106.637C56.2705 106.584 56.3263 106.516 56.3652 106.438C56.404 106.361 56.4249 106.275 56.4263 106.189C56.4277 106.102 56.4095 106.016 56.3731 105.937C55.0383 103.165 50.1445 92.7116 49.7446 91.9026C49.6957 91.8318 49.6284 91.7755 49.55 91.74C49.4716 91.7044 49.3849 91.6909 49.2994 91.7008C46.1433 92.2265 25.1505 95.9069 20.9444 96.6752ZM57.9504 60.9633C58.7883 62.5379 59.851 63.9822 61.1049 65.2507C64.9947 68.9416 69.4011 70.2522 70.8112 70.1468C72.1045 70.0481 111.055 65.8345 113.884 65.4963C114.347 65.4739 114.789 65.293 115.135 64.9838C115.481 64.6746 115.711 64.2559 115.785 63.7977C115.85 63.5534 115.846 63.296 115.775 63.0535C115.704 62.811 115.567 62.5927 115.38 62.4223C110.668 58.5243 105.945 54.5494 101.265 50.613C101.033 50.3871 100.751 50.2184 100.443 50.1201C100.134 50.0218 99.8065 49.9966 99.4863 50.0466C96.6624 50.4631 61.633 54.1939 57.6272 54.6172C56.2465 54.7626 56.6058 55.1332 56.9395 58.4994C56.9757 58.864 57.1821 58.9845 57.5421 58.9845C57.9307 58.9788 58.3117 59.0918 58.6343 59.3084C58.9358 59.6289 59.1575 60.016 59.2814 60.4383C59.4433 60.7622 59.2814 60.9655 58.9175 60.9655C58.5963 61.0052 58.2714 61.0044 57.9504 60.9633Z" fill="#191919"/>
<path d="M110.772 32.9355C110.408 31.722 110.084 30.5492 109.679 29.4171C109.54 27.6295 109.662 25.831 110.043 24.0789C110.646 23.7776 111.443 25.5018 112.511 26.6264C113.357 27.5182 113.481 28.6488 113.805 29.7003C113.967 30.2276 114.128 30.7112 114.29 31.237C114.312 31.2395 114.334 31.2372 114.355 31.2301C114.376 31.2231 114.395 31.2115 114.411 31.1963C114.331 30.669 114.007 25.4536 114.007 23.5132C114.007 22.308 114.917 21.0629 116.07 21.612C117.175 22.1393 117.268 23.2443 117.445 24.4834C118.294 24.4028 118.4 24.4834 118.574 25.3331C118.748 26.2144 118.748 27.1212 118.574 28.0025C118.491 28.3355 118.382 28.4726 118.17 28.3664C118.089 27.3118 117.846 25.1711 117.805 25.1711C117.732 25.4503 117.679 25.7342 117.644 26.0208C117.766 27.9214 117.927 29.8221 118.129 31.7228C118.129 31.8358 118.239 32.4165 118.574 32.2501C119.093 29.2202 119.782 26.222 120.639 23.2699C120.842 22.4783 121.407 21.7371 122.216 22.0158C122.432 22.1571 122.602 22.3594 122.702 22.597C122.803 22.8347 122.831 23.097 122.783 23.3505C122.783 23.4311 122.742 23.4718 122.742 23.5531C122.945 23.6291 123.117 23.7686 123.234 23.9509C123.351 24.1331 123.405 24.3482 123.389 24.564C123.409 25.495 123.409 26.3831 123.389 27.3141C123.382 27.4132 123.338 27.5061 123.267 27.5754C123.196 27.6448 123.102 27.6858 123.003 27.6908C122.903 27.6958 122.806 27.6644 122.728 27.6025C122.65 27.5407 122.598 27.4526 122.58 27.3548C122.562 27.0554 122.522 26.7577 122.459 26.4644C120.334 37.0896 121.849 31.9337 124.4 26.5857C124.625 26.1909 124.897 25.8244 125.209 25.4943C125.52 25.0312 125.873 24.598 126.263 24.2002C126.323 24.0992 126.405 24.0136 126.503 23.9503C126.602 23.887 126.714 23.8477 126.83 23.8356C127.194 23.8356 127.24 24.0782 127.274 24.4427C127.372 25.4521 127.518 26.4245 127.639 27.4354C127.706 27.7728 127.591 27.9182 125.374 32.8142C125.21 33.1773 125.374 33.3747 125.657 33.5426C125.985 33.7385 126.345 33.9471 126.668 34.1083C126.919 34.2377 127.119 34.4476 127.237 34.7044C127.354 34.9612 127.382 35.25 127.315 35.5244C126.997 37.5536 124.331 52.2622 124.039 54.0873C123.326 58.5367 116.825 57.6968 112.432 56.7568C110.225 56.2852 110.381 54.949 109.844 52.632C109.553 51.3794 106.236 37.2546 105.678 35.2412C105.159 33.3822 108.868 32.8331 110.772 32.9355ZM126.062 35.9688C119.591 37.3442 113.201 37.4655 106.892 35.2412C108.644 43.9991 109.468 46.3839 111.584 54.4488C111.846 55.4499 112.48 55.3218 112.837 55.5034C117.71 56.0306 119.605 56.6332 121.775 55.6246C122.079 55.5151 122.348 55.3261 122.555 55.0771C122.761 54.8282 122.897 54.5285 122.948 54.2093C125.918 38.3152 125.008 42.0663 126.058 35.9688H126.062ZM110.572 29.2145C110.891 31.1976 111.433 33.1386 112.185 35.0009C112.23 35.0985 112.3 35.1823 112.388 35.2434C113.116 35.3647 113.843 35.4453 114.612 35.5267C114.49 35.0378 112.614 29.0488 112.59 28.9735C112.226 28.0417 110.406 29.0126 110.567 29.2145H110.572ZM125.738 28.0417C125.537 28.0824 125.333 28.2489 125.132 28.2037C124.969 28.1675 124.849 27.9204 124.687 27.7186C123.595 30.266 122.261 32.69 121.29 35.3625C122.017 35.2811 122.625 35.2005 123.231 35.1199C123.525 35.1199 123.562 34.9421 126.102 29.0126C126.236 28.7362 125.959 28.4176 125.734 28.0417H125.738ZM119.875 27.476C119.308 30.263 118.82 32.8549 118.257 35.5643C118.823 35.5244 119.187 35.4837 119.591 35.4837C120.262 35.4837 119.881 35.501 121.613 27.9204C121.002 27.7592 120.436 27.6372 119.87 27.476H119.875ZM117.448 35.5643C117.192 31.9925 117.017 30.3376 116.92 28.6887C116.869 27.7999 116.758 27.6342 115.828 27.7186C115.582 27.7725 115.339 27.8399 115.1 27.9204C115.343 30.4686 115.586 33.0169 115.788 35.5643H117.448ZM116.72 26.7514C116.558 25.498 116.404 24.1618 116.153 22.8692C115.997 22.0595 115.183 22.4647 115.061 22.6666C114.9 22.8902 114.815 23.1594 114.819 23.4349C114.884 26.1511 115.061 26.4072 115.061 27.1152C115.623 26.9902 116.108 26.8659 116.715 26.7476L116.72 26.7514ZM111.745 27.4391C110.976 26.2663 110.976 26.2663 110.451 26.4283C110.208 28.2481 110.046 27.9649 110.572 27.9649C110.999 27.8884 111.401 27.7064 111.74 27.4354L111.745 27.4391ZM125.496 27.0346C126.062 26.7115 126.062 26.7115 126.626 27.5197H126.747C126.707 26.994 126.667 26.4682 126.626 25.9424C126.414 25.8626 126.198 25.7952 125.979 25.7406C125.208 26.5857 125.208 26.5857 125.491 27.0309L125.496 27.0346Z" fill="#191919"/>
<path d="M9.21674 128.139C8.82774 128.194 8.43294 128.194 8.04394 128.139C7.97081 128.122 7.90297 128.087 7.84656 128.038C7.79015 127.988 7.74693 127.926 7.7208 127.855C7.68013 127.775 7.84207 127.613 7.92267 127.492C8.0638 127.348 8.23484 127.237 8.42362 127.167C8.6124 127.097 8.81428 127.07 9.01487 127.087C16.1074 125.757 131.299 104.716 144.136 102.214C145.325 101.982 146.048 103.135 145.107 103.344C144.272 103.535 9.29206 128.125 9.21674 128.139Z" fill="#191919"/>
<path d="M146.765 106.705C146.906 106.65 147.062 106.649 147.203 106.701C147.345 106.753 147.462 106.855 147.534 106.988C147.453 107.432 147.089 107.515 146.725 107.635C100.853 118.624 14.4564 134.49 10.3091 134.49C10.3091 132.759 37.654 130.587 146.765 106.705Z" fill="#191919"/>
<path d="M29.236 64.1581C28.1061 65.1291 24.9124 64.6372 23.7765 63.9156C22.9975 63.4205 22.3606 62.7315 21.9282 61.9161C21.4957 61.1007 21.2826 60.1869 21.3096 59.2643C21.1929 55.355 24.5117 54.0579 26.6072 55.8266C26.7691 55.9478 26.9311 56.1098 27.0523 55.8266C27.3742 55.2078 27.8464 54.6799 28.4255 54.2912C29.0046 53.9026 29.6721 53.6656 30.3666 53.6022C34.4416 52.8987 36.5085 52.4761 42.6211 53.6429C44.4439 53.9909 45.4081 55.5433 45.2499 57.5251C44.9929 60.3846 43.8621 63.0957 42.011 65.2903C41.3518 66.117 40.3963 66.6541 39.3475 66.7877C37.4877 67.074 35.6008 67.1418 33.7253 66.9896C31.4279 66.7983 30.0035 64.8157 29.236 64.1581ZM27.6188 56.9594C27.4908 58.4138 27.7415 59.8766 28.3464 61.2054C29.1467 62.8234 30.2928 64.2456 31.7036 65.3716C32.215 65.8377 32.8736 66.1096 33.5649 66.1399C35.7687 66.3107 37.9855 66.1884 40.1572 65.7761C40.3772 65.7116 40.5738 65.585 40.7237 65.4115C42.893 63.1737 44.6488 59.7577 44.5253 56.5549C44.4552 54.7411 42.5601 54.1905 40.7643 53.9261C36.7601 53.3356 28.009 52.9386 27.6188 56.9594ZM34.2917 54.0873C40.8894 53.4094 45.1181 55.4612 43.3916 56.231C40.3154 57.6027 35.1813 58.3936 29.3173 56.8781C28.7095 56.7214 27.6964 55.8989 29.0341 55.1388C29.9621 54.6101 33.1589 54.2033 34.2917 54.0873ZM26.6885 57.2826C26.7383 57.0334 26.6951 56.7745 26.5673 56.5549C26.3085 56.2374 25.97 55.9945 25.5863 55.8512C25.2027 55.7078 24.7878 55.6691 24.3843 55.7392C23.9808 55.8092 23.6031 55.9853 23.2902 56.2496C22.9773 56.5138 22.7403 56.8566 22.6037 57.2426C22.345 57.8445 22.2159 58.494 22.2246 59.149C22.2333 59.8041 22.3798 60.4499 22.6544 61.0447C22.929 61.6394 23.3257 62.1697 23.8187 62.6011C24.3116 63.0325 24.8898 63.3554 25.5157 63.5488C26.5855 63.9742 27.7666 64.0309 28.8722 63.71C28.6703 63.4267 28.4677 63.1827 28.3057 62.9417C25.9473 63.7808 21.3895 59.3909 24.3429 57.3202C24.6744 57.0547 25.0847 56.9069 25.5093 56.9001C25.9339 56.8933 26.3487 57.0278 26.6885 57.2826ZM28.1039 62.6615C27.2739 61.3374 26.813 59.8155 26.7691 58.2535C26.7041 58.0916 26.6036 57.9465 26.4749 57.8286C26.3463 57.7108 26.1929 57.6234 26.026 57.5728C25.859 57.5222 25.6829 57.5097 25.5105 57.5363C25.3381 57.5628 25.1739 57.6277 25.0299 57.7262C22.7935 58.9676 25.5692 62.6615 28.1039 62.6615ZM33.8466 55.3821C32.7167 54.8157 30.692 55.0176 30.045 56.0292C31.339 55.7904 32.5103 55.584 33.8466 55.3821Z" fill="#191919"/>
<path d="M55.2415 52.9958C55.4034 54.6944 54.5191 53.2376 54.4732 52.9551C54.2209 51.4132 49.4461 26.5066 49.2555 25.1703C49.072 24.3174 49.1561 23.4285 49.4963 22.6251C49.8366 21.8217 50.4164 21.1428 51.1567 20.681C51.5855 20.4612 52.0518 20.324 52.5313 20.2765C53.5806 20.101 87.4757 16.9359 88.9309 16.8794C93.47 16.7032 93.0489 17.3058 99.6481 48.102C99.6481 48.9517 99.0101 48.6662 98.9204 48.3039C98.8097 47.8564 98.6267 47.4173 98.5159 46.9699C92.6512 23.2579 92.728 20.2253 92.2068 19.2657C92.0024 18.7906 91.6549 18.3911 91.2127 18.1228C90.7706 17.8545 90.2557 17.7308 89.7399 17.769C88.5265 17.8519 52.4071 21.1586 51.8037 21.5307C50.3921 22.3947 50.3725 23.6292 50.1857 24.7659C50.2264 24.8065 54.837 50.6502 55.2415 52.9958Z" fill="#191919"/>
<path d="M26.3645 83.8541C25.4381 84.0357 21.9958 84.7776 21.1883 84.9463C19.9296 85.2092 16.8752 85.6581 11.6432 86.8068C11.4389 86.8682 11.2243 86.8874 11.0123 86.8633C10.8004 86.8392 10.5955 86.7723 10.4102 86.6666C10.2249 86.5609 10.0629 86.4188 9.93424 86.2486C9.80553 86.0785 9.71272 85.884 9.66144 85.677C4.15374 72.5947 4.33904 72.9841 4.44449 72.2467C4.44449 71.9966 4.22982 72.1103 19.1252 69.2541C20.1797 69.0529 21.2305 68.8594 22.2797 68.607C22.7663 68.4903 23.0081 68.769 23.21 69.1343C28.2266 78.1641 26.1732 74.8589 29.9236 80.9436C30.2475 81.4709 30.4968 81.9906 30.8132 82.481C31.0203 82.8011 30.8531 83.0436 30.5307 83.128C30.2505 83.1996 27.5389 83.6244 26.3645 83.8541ZM30.005 82.3175C29.959 82.2422 25.8621 74.8665 22.9674 69.9011C22.901 69.7312 22.7707 69.5942 22.6044 69.5191C22.4382 69.4441 22.2492 69.4371 22.0779 69.4996C16.696 70.5029 12.065 71.3451 5.09153 72.6949C7.25182 77.8252 5.46815 74.007 10.9156 85.7176C10.9962 85.9203 11.0768 86.0815 11.36 86.0009C13.4231 85.5964 15.4862 85.2793 17.5479 84.871C20.9472 84.1878 29.2359 82.5194 30.005 82.3175Z" fill="#191919"/>
<path d="M6.83092 49.3128C5.96093 49.4868 5.54589 48.3193 6.42643 48.0993C7.55629 47.9638 49.5223 44.2879 50.8737 44.1765C51.4393 44.1298 51.642 44.2164 51.6826 44.6209C51.7233 45.0254 51.6013 45.228 51.1554 45.228C49.6406 45.231 7.0697 49.3128 6.83092 49.3128Z" fill="#191919"/>
<path d="M132.853 70.5482C130.55 69.9208 131.841 70.543 125.896 68.3239C124.329 67.6643 122.859 66.7936 121.528 65.7358C121.247 65.5422 120.931 65.4049 120.597 65.3313C120.352 65.2974 120.12 65.1968 119.928 65.0404C119.735 64.884 119.589 64.6778 119.506 64.4442C119.422 64.2107 119.405 63.9587 119.454 63.7157C119.504 63.4728 119.62 63.2482 119.788 63.0663C120.726 61.9512 121.939 61.1008 123.308 60.5994C125.661 59.6074 127.999 59.9532 130.304 60.7614C133.745 61.9666 138.003 63.22 139.041 66.5854C139.203 67.2038 139.165 67.8573 138.932 68.4526C138.7 69.0479 138.285 69.5544 137.747 69.8997C134.88 71.4792 134.112 70.8917 132.853 70.5482ZM122.58 65.8977C125.116 67.4822 127.887 68.656 130.79 69.3754C130.318 68.9039 131.322 69.5005 122.863 65.8164C122.533 65.5972 122.382 65.7983 122.58 65.8977ZM125.168 60.6401C123.543 61.0167 121.251 62.0291 120.315 63.3902C119.901 63.9928 120.071 64.4071 120.801 64.6037C124.569 65.5798 128.178 67.0914 131.518 69.0922C133.374 70.0285 134.84 70.8202 137.261 68.8098C138.391 67.8727 138.435 67.0698 137.665 65.8164C137.047 64.7618 136.113 63.9276 134.996 63.4309C133.097 62.6189 131.155 61.8935 129.172 61.2058C127.884 60.7694 126.526 60.5775 125.168 60.6401Z" fill="#191919"/>
<path d="M118.657 80.5386C118.738 79.0012 119.906 78.4024 121.245 79.1631C121.321 79.2076 131.654 84.9036 139.728 89.5579C140.444 90.3428 141.081 91.1963 141.629 92.1061C141.815 92.3878 141.724 92.7087 141.265 92.7087C137.68 92.3102 140.861 93.5734 119.709 81.7113C119.345 81.3875 118.819 81.0643 118.657 80.5386ZM139.203 89.9616L123.954 81.3069C123.832 81.2032 123.688 81.1277 123.534 81.0854C123.379 81.0431 123.217 81.0352 123.059 81.0622C122.902 81.0892 122.751 81.1504 122.62 81.2416C122.488 81.3328 122.378 81.4518 122.297 81.5901C121.965 81.9878 121.975 82.1927 122.418 82.439C129.395 86.3039 138.091 91.3769 138.272 91.3769C138.556 90.9325 138.839 90.4467 139.203 89.9616ZM140.497 91.3363L139.89 90.3661C139.121 90.6892 138.798 91.0937 138.836 91.7408C139.404 91.6602 140.052 92.0646 140.497 91.3363ZM119.707 80.9024C120.03 80.4165 120.314 79.9721 120.637 79.4863C120.54 79.4324 120.433 79.399 120.322 79.3882C120.211 79.3775 120.099 79.3896 119.994 79.4237C119.888 79.4579 119.79 79.5134 119.706 79.5869C119.623 79.6604 119.555 79.7502 119.508 79.8508C119.224 80.3359 119.345 80.7404 119.709 80.9024H119.707ZM121.244 81.8725C121.648 81.3453 122.012 80.9423 122.374 80.4979C122.088 80.4789 121.805 80.562 121.576 80.7324C121.346 80.9029 121.184 81.1495 121.12 81.4281C121.124 81.5517 121.242 81.7513 121.242 81.8725H121.244ZM120.435 81.4681C120.799 80.8655 121.082 80.4135 121.325 79.9314C120.718 80.0527 120.314 80.3766 120.271 80.9024C120.293 81.099 120.349 81.2903 120.436 81.4681H120.435Z" fill="#191919"/>
<path d="M43.7545 64.7646C46.2115 65.1925 45.5118 70.3017 36.9196 70.8312C33.585 71.0369 26.2718 69.7285 27.5364 67.111C27.6424 66.8011 27.8367 66.529 28.0954 66.3282C28.3541 66.1274 28.666 66.0068 28.9925 65.9811C28.9309 66.1035 28.8316 66.2028 28.7092 66.2643C28.5036 66.3728 28.3328 66.5372 28.2164 66.7384C28.1 66.9397 28.0427 67.1697 28.0512 67.4021C28.0597 67.6344 28.1336 67.8596 28.2644 68.0519C28.3952 68.2441 28.5776 68.3955 28.7906 68.4887C32.4318 70.7017 39.9152 70.9412 43.6739 67.8861C43.8796 67.7341 44.0521 67.5415 44.1806 67.3204C44.3092 67.0992 44.3911 66.8541 44.4214 66.6001C44.4516 66.3461 44.4296 66.0885 44.3566 65.8434C44.2837 65.5982 44.1613 65.3705 43.997 65.1744C43.8757 65.0885 43.8351 64.9266 43.7545 64.7646Z" fill="#191919"/>
<path d="M128.524 37.8701C127.937 37.8701 127.825 37.373 128.241 37.0611C128.927 36.3214 137.71 35.767 137.786 35.767C137.99 35.751 138.192 35.8165 138.347 35.9492C138.503 36.0819 138.599 36.2709 138.615 36.4747C138.631 36.6785 138.566 36.8803 138.433 37.0357C138.3 37.1912 138.111 37.2876 137.908 37.3037C134.793 37.6717 131.66 37.8608 128.524 37.8701Z" fill="#191919"/>
<path d="M101.629 39.2441C104.793 38.8833 105.316 38.8291 105.755 39.0822C105.838 39.1204 105.907 39.1826 105.955 39.2607C106.002 39.3389 106.025 39.4294 106.021 39.5207C106.017 39.612 105.985 39.6999 105.93 39.7732C105.876 39.8464 105.8 39.9017 105.714 39.9318C105.15 40.1369 104.568 40.286 103.975 40.377C102.561 40.5517 101.103 40.6602 99.6475 40.7408C99.0411 40.8214 97.9459 39.6644 101.629 39.2441Z" fill="#191919"/>
<path d="M113.844 76.2498C113.561 75.886 113.241 75.4408 112.631 75.6834C112.51 75.724 111.284 75.8122 110.974 75.2789C110.391 74.2846 108.165 73.6971 107.293 73.6217C99.0258 72.7359 95.292 74.4217 91.1974 76.7356C90.4087 77.0738 90.9812 76.9021 88.4465 76.008C83.5595 74.1754 75.2979 74.5859 67.416 79.6077C66.3978 80.2353 65.5285 81.0771 64.8686 82.0746C64.3579 82.8391 63.9715 82.7066 62.8461 83.2045C62.7251 83.232 62.6127 83.2891 62.5191 83.3706C62.4254 83.4521 62.3533 83.5555 62.3093 83.6716C62.2652 83.7876 62.2505 83.9128 62.2665 84.0359C62.2825 84.159 62.3287 84.2763 62.401 84.3773C63.048 85.4695 74.7767 105.125 75.8282 106.945C76.1521 107.512 76.3947 107.633 77.001 107.512C79.2261 107.026 97.9675 103.387 102.117 102.496C102.775 102.318 103.458 102.25 104.139 102.294C105.546 102.463 106.965 102.086 108.102 101.239C108.422 101.005 108.8 100.865 109.195 100.835C111.095 100.592 125.655 98.4485 127.151 98.2467C131.591 97.7834 133.121 101.258 113.844 76.2498ZM78.0111 105.612C77.7098 105.311 64.9981 84.3328 64.9477 84.2575C65.3009 83.9042 64.1944 82.4121 77.8085 104.884C78.2431 105.608 78.2469 105.376 78.0111 105.612ZM84.4009 103.589C89.394 101.38 94.7588 100.131 100.214 99.9091L84.4009 103.589ZM86.0188 102.133C89.5372 100.354 93.2175 99.2221 96.9792 99.3833C93.2356 99.8934 89.5598 100.816 86.0188 102.133ZM79.022 105.207C74.4111 97.685 69.8005 90.176 65.1902 82.6802C72.0914 76.8049 81.305 74.5686 89.0928 77.342C90.0543 77.6748 90.8695 78.3328 91.3977 79.2025C98.0609 89.4149 103.972 98.1909 104.784 99.5453C95.1187 96.5526 86.7065 99.1814 79.022 105.207ZM105.755 99.3833C101.023 92.2652 96.2508 85.0665 91.4384 77.8677C95.9721 74.1151 105.499 73.6925 110.245 75.4408C110.604 75.5312 125.416 94.8624 125.734 95.3392C122.319 94.6075 118.776 94.7325 115.421 95.703C112.045 96.4777 108.792 97.7163 105.755 99.3833ZM122.66 95.9056C119.873 96.3101 116.918 96.6739 114.005 97.0784C117.888 96.0269 121.528 95.5817 122.66 95.9056ZM110.123 98.8982C110.091 98.8508 110.077 98.7934 110.083 98.7363C111.013 98.4937 111.984 98.209 112.995 98.0486C115.033 97.739 123.074 96.5263 125.168 96.4314C125.442 96.4347 125.714 96.4755 125.977 96.5526C120.639 97.3616 115.381 98.1299 110.123 98.8982Z" fill="#191919"/>
<path d="M119.708 80.9019C118.879 80.5328 119.574 78.9744 120.597 79.4858C120.314 79.9694 119.991 80.4161 119.708 80.9019Z" fill="#38A1FF"/>
<path d="M48.528 106.826C48.4467 107.271 48.2034 107.481 47.7996 107.433C45.8932 107.201 48.3856 108.299 40.2371 103.469C38.1122 102.21 29.3979 97.5131 29.3979 95.9064C29.5961 95.7083 31.8731 96.0571 32.2294 96.2703C50.2544 107.158 47.2339 105.209 48.528 106.826ZM40.0751 102.701C40.2793 102.905 44.0394 105.143 46.7481 106.745C47.0291 106.911 47.1526 106.785 47.3145 106.584C47.4765 106.34 47.3145 106.221 47.1127 106.098C46.3519 105.636 41.8136 102.859 40.3584 102.013C40.2781 102.248 40.1835 102.477 40.0751 102.701Z" fill="#191919"/>
<path d="M99.527 51.5801C100.267 51.6939 99.753 51.4024 110.892 61.0032C111.312 61.2834 111.004 61.5696 110.73 61.5696C109.193 61.7308 72.5919 65.9 70.934 66.1395C70.6748 66.182 70.4088 66.1515 70.166 66.0514C69.9231 65.9514 69.7128 65.7858 69.5586 65.5731C61.6496 55.9821 61.3965 56.0069 61.5102 55.6642C61.8289 55.0269 99.4381 51.5658 99.527 51.5801ZM68.9522 58.5363C68.4664 58.6169 68.1026 58.6975 67.6981 58.7382C67.3343 58.8195 67.6574 58.9408 67.9007 58.9408C69.3402 58.5408 69.9563 59.4884 71.621 61.5696C71.0553 61.6502 70.6101 61.6909 70.165 61.7715C69.7605 61.9334 70.125 61.8927 70.165 61.9334C70.5547 61.9764 70.948 61.9764 71.3378 61.9334C71.5394 61.8861 71.7505 61.8993 71.9448 61.9712C72.139 62.0431 72.3077 62.1707 72.43 62.3379C72.815 62.7228 73.22 63.0871 73.6434 63.4293C73.7647 63.5107 73.886 63.5913 73.7647 63.3081C73.3602 62.8637 72.9964 62.4185 72.5512 61.9741C72.5429 61.9642 72.5372 61.9524 72.5348 61.9397C72.5324 61.927 72.5332 61.9139 72.5373 61.9017C72.5414 61.8894 72.5486 61.8784 72.5581 61.8697C72.5677 61.861 72.5793 61.855 72.5919 61.8521C73.2389 61.7715 75.989 61.4077 77.4044 61.2864C77.6086 61.3138 77.796 61.4145 77.9316 61.5696C78.9734 62.6113 80.3812 64.2436 79.9541 63.3894C79.3876 62.7017 78.8242 61.9741 78.2148 61.2864C78.3768 61.205 79.5112 61.1003 82.6236 60.7591C84.0397 60.6085 84.4931 60.4269 84.9285 60.9211C85.3804 61.4378 85.8587 61.9319 86.3039 62.4577C86.5058 62.7808 86.6677 62.6196 86.4252 62.3364C86.0207 61.7293 85.5755 61.1636 85.1311 60.5166C86.8696 60.3139 88.5689 60.1121 90.3074 59.9095C90.91 59.9095 91.612 61.2374 92.4104 61.77L92.5317 61.6487C92.0873 61.0823 91.6828 60.5188 91.2376 59.9501C91.1239 59.7242 91.0945 59.8658 95.9695 59.2217C96.5367 59.1464 96.8997 59.0606 97.3042 59.6262C98.0326 60.9211 98.3588 61.1229 98.0725 60.3953C97.9513 60.1927 97.668 59.6262 97.5068 59.3031C97.4952 59.2822 97.4893 59.2586 97.4897 59.2347C97.49 59.2107 97.4967 59.1873 97.509 59.1668C97.5213 59.1462 97.5388 59.1293 97.5597 59.1177C97.5806 59.106 97.6042 59.1001 97.6281 59.1005C98.2752 59.0199 99.8939 58.7035 101.348 58.5348C102.684 58.3796 103.091 58.1273 103.573 58.6561C103.94 59.0583 104.342 59.4244 104.746 59.8289C105.029 60.152 105.15 60.0714 104.907 59.7076L103.778 58.3322C103.758 58.3172 103.744 58.2962 103.738 58.2725C103.731 58.2488 103.733 58.2236 103.742 58.2008C103.751 58.178 103.767 58.1587 103.788 58.146C103.809 58.1333 103.834 58.1278 103.858 58.1303L105.234 57.7665C105.557 57.6851 105.396 57.6045 105.193 57.6045C103.302 57.7763 103.452 58.1183 102.443 56.9168C102 56.3896 100.42 55.0563 100.178 54.8138C100.308 54.738 100.443 54.6704 100.582 54.6112C100.866 54.5306 100.866 54.4093 100.461 54.4899C100.232 54.5385 99.9949 54.5247 99.7733 54.45C99.6928 54.4093 99.0864 53.6817 98.8838 53.4384C98.6412 53.2365 98.6412 53.3578 98.7625 53.5197L99.2898 54.3686C99.3014 54.3895 99.3073 54.4131 99.307 54.4371C99.3066 54.461 99.2999 54.4844 99.2876 54.5049C99.2753 54.5255 99.2578 54.5424 99.2369 54.554C99.216 54.5657 99.1924 54.5716 99.1685 54.5712C97.4699 54.7731 95.8113 54.9757 94.1534 55.1369C93.6133 55.1369 93.4002 54.7716 92.8187 54.288C92.6567 54.0048 92.5355 54.1261 92.7381 54.3686C92.9399 54.6518 93.1019 54.9351 93.3045 55.2183C93.3851 55.3802 93.3444 55.4201 93.2638 55.4201C92.4955 55.5821 90.9582 55.619 90.0249 55.744C87.6786 56.0589 87.552 56.1131 86.6278 55.0157C86.418 54.7802 86.1878 54.5637 85.9401 54.3686C85.8188 54.2074 85.7382 54.3287 85.8188 54.4899C86.1834 54.9351 86.6278 55.5015 87.0323 55.9866C87.0404 55.9964 87.0459 56.0082 87.0483 56.0208C87.0506 56.0334 87.0497 56.0464 87.0456 56.0585C87.0416 56.0706 87.0345 56.0815 87.025 56.0902C87.0156 56.0988 87.0041 56.1049 86.9916 56.1079C86.3852 56.1485 83.8785 56.2713 82.7855 56.4717C81.8967 56.6351 81.731 56.5929 81.047 55.7847C80.8671 55.5241 80.6639 55.2803 80.4399 55.0563C80.1567 54.6925 80.238 54.9757 80.3186 55.1776C80.6019 55.5821 80.8851 56.0273 81.1683 56.4717C81.1768 56.4902 81.1814 56.5103 81.1819 56.5308C81.1824 56.5512 81.1787 56.5715 81.1711 56.5904C81.1635 56.6094 81.1521 56.6266 81.1376 56.641C81.1232 56.6554 81.1059 56.6667 81.087 56.6743C79.2264 56.9575 77.4149 57.2468 75.5883 57.5232C74.9202 57.6249 75.1522 57.3725 74.0916 56.3105L73.9703 56.4317C74.2136 56.8362 74.4976 57.2 74.82 57.6445C73.2427 57.9277 71.7053 58.1273 70.1687 58.4534C69.9425 58.5196 69.7 58.5029 69.485 58.4062C69.27 58.3095 69.0966 58.1393 68.9959 57.9262C67.9851 56.6728 67.8231 56.7534 67.9851 56.956C68.2544 57.5135 68.5784 58.0428 68.9522 58.5363Z" fill="#38A1FF"/>
<path d="M69.4372 68.6478C69.3619 68.5725 68.7171 68.0791 69.5178 67.8795C71.175 67.6769 112.59 62.945 114.37 62.7432C114.718 62.7432 114.962 63.1718 114.41 63.3088C110.148 63.8595 70.2937 68.4761 69.4372 68.6478Z" fill="#191919"/>
<path d="M57.5458 55.5037C68.6117 67.9321 68.873 67.5819 68.3849 68.0007C68.1017 68.2432 67.9021 67.9577 67.7379 67.7581C65.6236 65.1821 56.9395 55.8283 56.9395 55.6649C56.9395 55.5436 56.9364 54.8182 57.5458 55.5037Z" fill="#191919"/>
<path d="M75.0181 83.4899C74.5496 83.7302 74.0976 83.9999 73.9635 83.6519C73.8023 83.0063 77.2145 81.5217 77.5633 81.3869C80.7389 80.1415 84.1479 79.6033 87.5528 79.8096C88.1398 79.8737 88.7212 79.982 89.292 80.1335C91.0372 81.0035 82.7034 79.552 75.0181 83.4899Z" fill="#191919"/>
<path d="M89.6182 82.8428C90.5884 83.2473 89.6582 83.37 89.4962 83.37C87.5306 83.3815 85.5742 83.6396 83.6729 84.1383C83.5516 84.179 82.5807 84.0577 83.511 83.6111C87.1197 82.4549 87.9167 82.4503 89.6182 82.8428Z" fill="#191919"/>
<path d="M106.159 91.2961C105.674 90.5278 105.189 89.7994 104.703 89.0718C104.633 89.0254 104.553 88.9943 104.469 88.9803C104.386 88.9663 104.3 88.9697 104.218 88.9904C103.811 89.1027 103.369 89.233 102.924 89.3143C103.167 88.7479 103.733 88.6266 104.218 88.3027C103.854 87.6964 103.531 87.09 103.164 86.443C101.706 86.9703 101.793 86.9431 101.384 86.8068C101.629 86.4385 101.198 86.5808 102.881 85.8766C102.395 85.0269 101.95 84.2194 101.465 83.369C101.141 83.4903 100.817 83.6116 100.454 83.7328C100.454 83.1671 100.939 83.1302 101.182 82.8839C100.817 82.1156 100.454 81.3466 100.09 80.5376C100.131 80.4977 100.109 79.8762 100.737 80.7402C101.791 82.1909 101.888 82.6007 102.193 82.6007C103.528 82.3175 104.822 81.9936 106.156 81.6705C104.781 79.1629 104.579 78.3133 106.642 81.266C106.688 81.4028 106.785 81.5167 106.913 81.5844C107.041 81.652 107.19 81.6682 107.329 81.6298C108.299 81.5356 109.27 81.5085 110.322 81.4678C110.187 81.2241 110.079 80.9665 109.999 80.6995C108.944 77.4237 110.564 80.457 110.564 80.4977C111.309 82.7303 113.111 80.8472 113.879 82.2768C113.232 82.2369 112.544 82.1962 111.735 82.1555C112.18 82.8432 112.544 83.4496 112.948 84.0567C113.043 84.2458 115.026 84.071 115.618 84.6593C114.93 85.0231 114.242 84.6593 113.474 84.9019C113.798 85.4291 114.121 85.9564 114.486 86.4791C114.526 86.5605 114.728 86.5605 114.89 86.5605C115.497 86.6004 116.063 86.6004 116.669 86.6411C116.837 86.6766 116.999 86.7309 117.155 86.803C117.155 87.0968 117.394 86.8648 114.97 87.2474C115.334 87.8546 115.658 88.4609 116.062 89.0274C116.272 89.2383 116.966 89.0921 118.61 89.1893C118.769 89.1893 119.514 89.4544 119.297 89.6744C118.408 89.755 117.518 89.8363 116.586 89.9169C116.655 90.2207 116.75 90.5183 116.868 90.8065C117.923 93.7185 117.88 93.8398 116.341 91.1711C116.04 90.7681 115.776 90.0789 115.371 90.0789C114.316 90.2408 113.308 90.4028 112.216 90.564C112.499 91.2517 113.025 92.6271 113.186 93.1529C113.551 94.123 112.944 93.2334 112.904 93.1928C111.878 91.7405 111.579 90.8472 111.124 90.8472C109.911 91.0897 108.738 91.3745 107.524 91.6155C107.889 92.2625 108.212 92.8696 108.536 93.476C108.819 93.9212 108.495 93.8398 108.333 93.5973C108.091 93.314 107.806 93.07 107.565 92.7883C107.283 92.4636 107.038 91.9394 106.716 91.858C106.289 91.7164 105.825 92.1194 104.451 92.4245C104.703 91.8219 105.472 91.7006 106.159 91.2961ZM103.611 85.5933C104.905 85.2702 106.159 84.9056 107.413 84.5825C107.09 83.8541 106.726 83.1671 106.358 82.3582C105.024 82.6007 103.647 82.8854 102.193 83.1671C102.722 84.016 103.164 84.825 103.611 85.5933ZM105.31 88.6266C105.837 89.4356 106.321 90.2039 106.806 90.9323C106.839 90.974 106.884 91.0042 106.935 91.0187C106.986 91.0332 107.04 91.0312 107.09 91.0129C108.263 90.689 109.476 90.3659 110.689 90.002C110.285 89.3143 109.88 88.6673 109.476 88.0203C109.447 87.9737 109.404 87.9372 109.353 87.9155C109.303 87.8938 109.247 87.8881 109.193 87.899C107.939 88.1415 106.685 88.3841 105.31 88.6266ZM108.95 87.2113C108.626 86.6449 108.263 86.0814 107.939 85.5127C107.794 85.2227 107.212 85.5451 103.935 86.1598C104.299 86.8068 104.582 87.2896 104.905 87.8169C104.987 87.8982 105.149 88.0195 105.27 87.9788C106.483 87.7371 107.696 87.4945 108.95 87.2113ZM110.204 87.6964C111.238 89.3889 111.45 89.8808 111.7 89.8808C112.755 89.7188 113.803 89.5162 114.895 89.3143C114.531 88.7072 114.208 88.1415 113.84 87.5751C113.727 87.3416 113.426 87.3634 110.204 87.6964ZM107.09 82.2768C108.288 84.474 107.928 84.4913 109.355 84.3399C110.123 84.2578 110.891 84.178 111.7 84.0966C111.376 83.4903 111.062 82.9178 110.729 82.3981C110.69 82.3337 110.637 82.2787 110.574 82.2368C110.511 82.1949 110.44 82.1672 110.366 82.1555C109.313 82.1759 108.263 82.2369 107.09 82.2768ZM108.667 85.1888C109.031 85.8359 109.355 86.3616 109.722 86.8874C109.76 86.9368 109.809 86.977 109.865 87.005C109.921 87.0331 109.982 87.0482 110.045 87.0493C111.137 86.9281 112.188 86.7661 113.321 86.6449C111.861 84.4597 113.009 84.8785 108.667 85.1888Z" fill="#191919"/>
<path d="M99.0415 78.4745C98.9202 78.1107 99.2035 77.908 99.4867 77.8274C103.597 76.3134 107.805 76.6012 108.586 77.3823C108.938 77.734 108.55 77.9465 108.303 77.8681C105.365 76.9326 101.963 77.7446 99.0415 78.4745Z" fill="#191919"/>
<path d="M16.8599 71.0332C18.1483 71.0451 19.4044 71.4378 20.4702 72.1618C21.536 72.8858 22.3639 73.9088 22.8497 75.1022C23.3355 76.2956 23.4575 77.6059 23.2004 78.8685C22.9433 80.131 22.3185 81.2893 21.4048 82.1977C20.491 83.106 19.329 83.7238 18.0649 83.9734C16.8009 84.223 15.4912 84.0932 14.3008 83.6003C13.1104 83.1074 12.0923 82.2734 11.3746 81.2034C10.657 80.1333 10.2718 78.8748 10.2676 77.5864C10.2761 75.8442 10.9747 74.1765 12.2103 72.9482C13.4458 71.72 15.1178 71.0314 16.8599 71.0332ZM15.8898 76.574C15.8898 76.5334 14.555 73.9046 13.8673 72.4892C13.2203 73.0956 12.6538 73.6191 12.0068 74.1878C13.3416 75.0367 15.8491 76.574 15.8898 76.574ZM11.7643 80.4962C12.4113 81.1839 12.9777 81.7496 13.5841 82.3966C14.4338 81.0219 16.0517 78.3931 16.0517 78.3524C15.9387 78.4692 13.1909 79.7836 11.7643 80.4962ZM11.481 79.9689C12.9777 79.2006 15.6871 77.7845 15.6871 77.7446C14.1505 77.6632 12.6139 77.6233 10.9553 77.542C11.118 78.3939 11.2792 79.1215 11.481 79.9689ZM21.9963 80.4133C22.2396 79.6051 22.4821 78.8767 22.7247 78.1084C21.0675 78.0278 17.9928 77.9058 17.9521 77.9465C19.2869 78.7577 20.5809 79.5667 21.9963 80.4156V80.4133ZM17.4671 71.7586C17.3857 73.4157 17.2644 76.4904 17.3051 76.4904C18.1141 75.1964 18.9231 73.9023 19.8126 72.487C19.0037 72.2467 18.2738 72.0034 17.4671 71.7586ZM16.5368 76.3692C16.5775 76.3692 16.7387 73.3359 16.82 71.7187C16.011 71.8799 15.2427 72.0825 14.4338 72.2459C15.1614 73.7019 15.8491 75.0367 16.5368 76.3714V76.3692ZM21.6325 80.9798C20.2977 80.1308 17.7503 78.5935 17.7096 78.6342C18.3973 79.9282 19.0843 81.2223 19.772 82.5977C20.419 82.078 20.9854 81.5507 21.6325 80.982V80.9798ZM15.4446 77.2188C15.4446 77.1781 13.0184 75.5617 11.6837 74.7113C11.4411 75.4796 11.1978 76.2072 10.9553 76.9763C12.5732 77.0591 14.0293 77.1397 15.4446 77.2211V77.2188ZM22.2795 75.277C20.8642 75.9647 19.5294 76.6117 18.2354 77.2587C18.2354 77.2994 21.1881 77.4614 22.7653 77.542C22.6034 76.7352 22.4415 76.0076 22.2795 75.2792V75.277ZM19.2063 82.8809C18.4779 81.5055 17.1032 78.9573 17.1032 78.9573C17.0626 80.3734 16.9812 81.8294 16.9413 83.366C17.7096 83.2078 18.3973 83.0444 19.2063 82.8832V82.8809ZM20.3828 72.8937C19.5739 74.1878 18.8056 75.3606 17.9966 76.5334C18.0365 76.574 20.5847 75.2792 21.9601 74.5923C21.3899 74.0258 20.9048 73.4594 20.3828 72.8937ZM16.2167 83.3276C16.3379 81.8317 16.4592 79.0002 16.4193 79.0002C15.651 80.173 14.9226 81.3865 14.0737 82.6806C14.8382 82.9231 15.4868 83.1257 16.2129 83.3276H16.2167Z" fill="#191919"/>
<path d="M123.711 61.7306C124.319 61.7306 124.885 61.6907 125.451 61.7306C125.775 61.7713 126.581 62.7016 126.826 62.9034C126.299 62.8228 125.128 62.621 125.046 62.5803C124.642 62.3377 124.237 62.0545 123.711 61.7306Z" fill="#191919"/>
<path d="M84.2791 60.113C83.5515 60.1936 82.9451 60.2795 82.338 60.3555C80.9641 60.528 79.5879 60.6387 78.2125 60.7999C78.0505 60.7999 77.808 60.7999 77.7274 60.6787C76.999 59.8298 76.2714 58.9402 75.4624 57.967C76.3121 57.8457 79.9962 57.3433 81.0439 57.158C81.2294 57.1084 81.4256 57.1166 81.6063 57.1816C81.787 57.2466 81.9435 57.3654 82.0548 57.5218C82.6965 58.3376 83.4701 59.1827 84.2791 60.113Z" fill="#38A1FF"/>
<path d="M102.438 57.7264C102.457 57.7414 102.471 57.7624 102.478 57.7861C102.484 57.8098 102.483 57.835 102.474 57.8578C102.465 57.8806 102.448 57.8999 102.427 57.9126C102.406 57.9253 102.382 57.9308 102.357 57.9283C101.808 57.9931 99.5335 58.3471 97.1803 58.5354C96.5152 58.5354 96.986 58.5912 94.3497 55.8238C94.3302 55.8087 94.3162 55.7878 94.3097 55.7641C94.3032 55.7404 94.3046 55.7152 94.3137 55.6924C94.3228 55.6696 94.3391 55.6503 94.3602 55.6376C94.3812 55.6249 94.4058 55.6194 94.4303 55.6219C99.5523 54.9153 99.5523 54.7609 99.7286 54.9342C100.659 55.8644 101.538 56.806 102.438 57.7264Z" fill="#38A1FF"/>
<path d="M88.001 56.3517C89.8683 56.1182 92.2779 55.8937 93.2179 55.7453C93.4036 55.7098 93.5953 55.7249 93.7731 55.7889C93.951 55.8529 94.1083 55.9635 94.2288 56.1092C94.933 56.9453 95.6848 57.7663 96.4538 58.6574C95.3014 58.8216 95.4709 58.7673 90.9936 59.3044C90.824 59.3074 90.6567 59.2656 90.5085 59.1831C89.6589 58.3335 88.8514 57.4439 88.001 56.5543V56.3517Z" fill="#38A1FF"/>
<path d="M90.1435 59.4263C88.7681 59.5883 87.4318 59.6673 86.0986 59.9536C85.6345 60.0797 85.1414 60.0439 84.7004 59.8522C84.2594 59.6605 83.8968 59.3243 83.6724 58.899C83.2296 58.3091 82.7569 57.7422 82.2563 57.2005C82.2412 57.1804 82.2311 57.1569 82.2271 57.132C82.2231 57.1071 82.2251 57.0817 82.2332 57.0578C82.2412 57.0339 82.2549 57.0123 82.2731 56.995C82.2913 56.9776 82.3134 56.9649 82.3377 56.9579C87.2684 56.4307 86.5626 56.4774 87.1102 56.4307C87.3527 56.4307 87.4748 56.5911 87.6375 56.7538C88.5334 57.5859 89.3707 58.4788 90.1435 59.4263Z" fill="#38A1FF"/>
<path d="M69.8817 58.8187C71.2563 58.6161 72.0269 58.4715 73.6833 58.2523C74.655 58.1235 75.0564 57.7446 75.543 58.5754C76.3317 59.9222 76.7588 59.9742 77.3636 60.8811C75.015 61.1417 73.9333 61.3233 72.5105 61.4475C71.8928 61.4475 71.8326 61.1929 69.841 58.9799C69.8249 58.9704 69.8122 58.956 69.805 58.9387C69.7978 58.9214 69.7964 58.9023 69.801 58.8841C69.8056 58.8659 69.8159 58.8498 69.8304 58.838C69.845 58.8262 69.863 58.8194 69.8817 58.8187Z" fill="#38A1FF"/>
</svg>
