<svg width="151" height="152" viewBox="0 0 151 152" fill="none" xmlns="http://www.w3.org/2000/svg">
<path d="M12.5137 76.0268C12.5137 92.0086 18.8624 107.336 30.1632 118.637C41.464 129.937 56.7912 136.286 72.7729 136.286C88.7547 136.286 104.082 129.937 115.383 118.637C126.683 107.336 133.032 92.0086 133.032 76.0268C133.032 60.0451 126.683 44.7179 115.383 33.4171C104.082 22.1163 88.7547 15.7676 72.7729 15.7676C56.7912 15.7676 41.464 22.1163 30.1632 33.4171C18.8624 44.7179 12.5137 60.0451 12.5137 76.0268Z" fill="#D9EDFF"/>
<path d="M101.192 114.149H45.0004C43.9943 114.149 43.0295 113.749 42.3181 113.038C41.6067 112.327 41.207 111.362 41.207 110.356V37.6108C41.207 36.562 41.6237 35.5561 42.3653 34.8145C43.1069 34.0729 44.1127 33.6562 45.1615 33.6562H101.022C102.071 33.6562 103.077 34.0729 103.818 34.8145C104.56 35.5561 104.976 36.562 104.976 37.6108V110.356C104.977 111.36 104.578 112.324 103.869 113.035C103.159 113.746 102.197 114.147 101.192 114.149Z" fill="#B0D9FF"/>
<path d="M101.192 114.149H45.0004C43.9943 114.149 43.0295 113.749 42.3181 113.038C41.6067 112.327 41.207 111.362 41.207 110.356V37.6108C41.207 36.562 41.6237 35.5561 42.3653 34.8145C43.1069 34.0729 44.1127 33.6562 45.1615 33.6562H101.022C102.071 33.6562 103.077 34.0729 103.818 34.8145C104.56 35.5561 104.976 36.562 104.976 37.6108V110.356C104.977 111.36 104.578 112.324 103.869 113.035C103.159 113.746 102.197 114.147 101.192 114.149V114.149Z" stroke="#020064" stroke-width="1.50648" stroke-linecap="round" stroke-linejoin="round"/>
<path d="M47.4819 39.9277H98.7053V107.878H47.4819V39.9277Z" fill="white"/>
<path d="M98.7053 63.2061L83.8303 79.3254C82.8923 80.3447 82.3971 81.6946 82.4536 83.0786C82.5101 84.4627 83.1136 85.7678 84.1316 86.7072C84.7704 87.296 85.5478 87.7137 86.3914 87.9214L81.5555 92.7587L82.2952 93.4984L75.7631 100.029C75.4707 100.32 75.2708 100.691 75.1885 101.096C75.1062 101.5 75.1453 101.92 75.3008 102.302C75.4563 102.684 75.7212 103.012 76.0624 103.244C76.4036 103.476 76.8057 103.603 77.2184 103.607C77.3702 103.607 77.5216 103.591 77.6703 103.56C83.395 102.343 86.307 100.585 86.3401 98.3282L86.7348 97.932L88.2142 99.4113L91.8523 95.7626C92.1102 95.969 92.3865 96.151 92.6779 96.3065C93.6399 96.8186 94.7379 97.0172 95.8183 96.8746C96.8988 96.732 97.9076 96.2552 98.7038 95.511L98.7053 63.2061Z" fill="#B0D9FF"/>
<path d="M47.4819 39.9277H98.7053V107.878H47.4819V39.9277Z" stroke="#020064" stroke-width="1.50648" stroke-linecap="round" stroke-linejoin="round"/>
<path d="M54.7842 56.6533H86.7261" stroke="#020064" stroke-width="1.50648" stroke-linecap="round" stroke-linejoin="round"/>
<path d="M54.7842 66.0605H86.7261" stroke="#020064" stroke-width="1.50648" stroke-linecap="round" stroke-linejoin="round"/>
<path d="M54.7842 76.5156H77.047" stroke="#020064" stroke-width="1.50648" stroke-linecap="round" stroke-linejoin="round"/>
<path d="M58.7873 30.5195H87.4014C87.9034 30.5211 88.3843 30.7217 88.7386 31.0772C89.093 31.4327 89.292 31.9142 89.292 32.4162V42.2083C89.292 42.7117 89.092 43.1946 88.7361 43.5505C88.3801 43.9065 87.8973 44.1065 87.3939 44.1065H58.7888C58.2854 44.1065 57.8026 43.9065 57.4466 43.5505C57.0906 43.1946 56.8906 42.7117 56.8906 42.2083V32.4162C56.8906 31.9132 57.0905 31.4307 57.4461 31.0751C57.8018 30.7194 58.2843 30.5195 58.7873 30.5195Z" fill="white"/>
<path d="M58.7873 30.5195H87.4014C87.9034 30.5211 88.3843 30.7217 88.7386 31.0772C89.093 31.4327 89.292 31.9142 89.292 32.4162V42.2083C89.292 42.7117 89.092 43.1946 88.7361 43.5505C88.3801 43.9065 87.8973 44.1065 87.3939 44.1065H58.7888C58.2854 44.1065 57.8026 43.9065 57.4466 43.5505C57.0906 43.1946 56.8906 42.7117 56.8906 42.2083V32.4162C56.8906 31.9132 57.0905 31.4307 57.4461 31.0751C57.8018 30.7194 58.2843 30.5195 58.7873 30.5195V30.5195Z" stroke="#020064" stroke-width="1.50648" stroke-linecap="round" stroke-linejoin="round"/>
<path d="M64.2065 39.9277H81.9785" stroke="#020064" stroke-width="1.50648" stroke-linecap="round" stroke-linejoin="round"/>
<path d="M68.3887 29.4726C68.3887 30.1591 68.5239 30.8389 68.7866 31.4731C69.0493 32.1073 69.4344 32.6836 69.9198 33.169C70.4052 33.6544 70.9815 34.0395 71.6157 34.3022C72.2499 34.5649 72.9297 34.7001 73.6162 34.7001C74.3026 34.7001 74.9824 34.5649 75.6166 34.3022C76.2509 34.0395 76.8271 33.6544 77.3126 33.169C77.798 32.6836 78.183 32.1073 78.4457 31.4731C78.7084 30.8389 78.8437 30.1591 78.8437 29.4726C78.8437 28.7861 78.7084 28.1064 78.4457 27.4721C78.183 26.8379 77.798 26.2616 77.3126 25.7762C76.8271 25.2908 76.2509 24.9057 75.6166 24.643C74.9824 24.3803 74.3026 24.2451 73.6162 24.2451C72.9297 24.2451 72.2499 24.3803 71.6157 24.643C70.9815 24.9057 70.4052 25.2908 69.9198 25.7762C69.4344 26.2616 69.0493 26.8379 68.7866 27.4721C68.5239 28.1064 68.3887 28.7861 68.3887 29.4726Z" fill="white"/>
<path d="M68.3887 29.4726C68.3887 30.1591 68.5239 30.8389 68.7866 31.4731C69.0493 32.1073 69.4344 32.6836 69.9198 33.169C70.4052 33.6544 70.9815 34.0395 71.6157 34.3022C72.2499 34.5649 72.9297 34.7001 73.6162 34.7001C74.3026 34.7001 74.9824 34.5649 75.6166 34.3022C76.2509 34.0395 76.8271 33.6544 77.3126 33.169C77.798 32.6836 78.183 32.1073 78.4457 31.4731C78.7084 30.8389 78.8437 30.1591 78.8437 29.4726C78.8437 28.7861 78.7084 28.1064 78.4457 27.4721C78.183 26.8379 77.798 26.2616 77.3126 25.7762C76.8271 25.2908 76.2509 24.9057 75.6166 24.643C74.9824 24.3803 74.3026 24.2451 73.6162 24.2451C72.9297 24.2451 72.2499 24.3803 71.6157 24.643C70.9815 24.9057 70.4052 25.2908 69.9198 25.7762C69.4344 26.2616 69.0493 26.8379 68.7866 27.4721C68.5239 28.1064 68.3887 28.7861 68.3887 29.4726V29.4726Z" stroke="#020064" stroke-width="1.50648" stroke-linecap="round" stroke-linejoin="round"/>
<path d="M95.1011 75.8652L113.412 82.6956L121.115 70.3425L101.205 64.9658L95.1011 75.8652Z" fill="#D9EDFF"/>
<path d="M124.294 96.71L138.476 82.528C138.532 82.4746 138.59 82.4243 138.651 82.3773C133.904 78.2586 132.733 69.5331 123.604 64.7666C111.587 58.4906 96.7241 59.988 83.6689 76.2911C83.37 76.646 83.1449 77.0568 83.0068 77.4997C82.8687 77.9426 82.8203 78.4086 82.8645 78.8705C82.9087 79.3323 83.0447 79.7806 83.2643 80.1893C83.484 80.5979 83.783 80.9586 84.1438 81.2503C84.5046 81.5419 84.9199 81.7586 85.3655 81.8877C85.8111 82.0169 86.278 82.0558 86.7388 82.0022C87.1997 81.9486 87.6452 81.8037 88.0493 81.5758C88.4534 81.3479 88.8079 81.0416 89.0922 80.675C89.9579 79.6044 90.8277 78.6076 91.7014 77.6846C92.0085 78.0125 92.3764 78.2776 92.7846 78.465C106.444 88.807 109.205 90.1206 112.547 91.4207C117.714 93.4289 119.995 94.399 123.794 97.8383C123.817 97.4137 123.995 97.0122 124.294 96.71ZM114.936 74.6355C113.785 76.0281 112.184 76.9745 110.409 77.3113C108.634 77.648 106.797 77.3537 105.216 76.4795L97.1383 72.7856C101.852 69.3357 106.608 67.8955 111.344 68.5132C115.374 69.0314 116.307 72.5957 114.936 74.6355Z" fill="white"/>
<path d="M50.0874 126.253C50.0874 126.947 52.476 127.612 56.7276 128.102C60.9792 128.593 66.7457 128.868 72.7584 128.868C78.7712 128.868 84.5376 128.593 88.7893 128.102C93.0409 127.612 95.4295 126.947 95.4295 126.253C95.4295 125.559 93.0409 124.894 88.7893 124.404C84.5376 123.913 78.7712 123.638 72.7584 123.638C66.7457 123.638 60.9792 123.913 56.7276 124.404C52.476 124.894 50.0874 125.559 50.0874 126.253Z" fill="#B0D9FF"/>
<path d="M57.9751 87.3789C57.4346 87.919 57.0357 88.5842 56.8137 89.3153C56.5917 90.0465 56.5534 90.8211 56.7024 91.5706C56.8513 92.3201 57.1828 93.0213 57.6674 93.612C58.1521 94.2028 58.775 94.6649 59.4809 94.9574C60.1869 95.2498 60.954 95.3637 61.7145 95.2888C62.4749 95.214 63.2052 94.9527 63.8405 94.5281C64.4759 94.1036 64.9967 93.5289 65.3568 92.855C65.717 92.181 65.9054 91.4287 65.9053 90.6645V91.5925C65.8953 92.087 65.9841 92.5785 66.1664 93.0382C66.3488 93.4979 66.621 93.9166 66.9672 94.2698C67.3133 94.623 67.7265 94.9036 68.1824 95.0951C68.6384 95.2867 69.1279 95.3854 69.6225 95.3854C70.117 95.3854 70.6066 95.2867 71.0626 95.0951C71.5185 94.9036 71.9317 94.623 72.2778 94.2698C72.624 93.9166 72.8962 93.4979 73.0786 93.0382C73.2609 92.5785 73.3497 92.087 73.3397 91.5925C73.3397 92.5782 73.7313 93.5235 74.4283 94.2205C75.1253 94.9175 76.0706 95.309 77.0562 95.309H79.8432" stroke="#020064" stroke-width="1.50648" stroke-linecap="round" stroke-linejoin="round"/>
<path d="M104.072 77.2901C104.529 77.3146 104.978 77.429 105.391 77.6267C105.804 77.8245 106.175 78.1017 106.481 78.4427C106.787 78.7836 107.023 79.1815 107.176 79.6137C107.328 80.0458 107.394 80.5038 107.369 80.9614L106.756 92.2811C106.731 92.7385 106.617 93.1865 106.419 93.5996C106.221 94.0127 105.943 94.3827 105.602 94.6886C105.261 94.9944 104.864 95.2302 104.431 95.3823C103.999 95.5344 103.542 95.5999 103.084 95.575C102.627 95.5502 102.179 95.4355 101.766 95.2376C101.353 95.0396 100.983 94.7622 100.677 94.4212C100.371 94.0802 100.135 93.6823 99.9831 93.2503C99.831 92.8182 99.7655 92.3604 99.7903 91.903L100.403 80.5848C100.453 79.6615 100.868 78.7959 101.555 78.178C102.243 77.5602 103.148 77.2408 104.072 77.2901Z" fill="#D9EDFF" stroke="#020064" stroke-width="1.50648" stroke-linecap="round" stroke-linejoin="round"/>
<path d="M100.469 76.2031C101.285 76.6382 101.895 77.3796 102.165 78.2644C102.435 79.1492 102.342 80.1049 101.908 80.9214L97.7452 89.0232C97.3103 89.8397 96.5689 90.45 95.684 90.7198C94.7992 90.9896 93.8434 90.8968 93.0269 90.4619C92.2104 90.027 91.6002 89.2856 91.3304 88.4007C91.0606 87.5159 91.1533 86.5601 91.5882 85.7436L95.7506 77.6418C96.1857 76.8255 96.9272 76.2154 97.8119 75.9456C98.6967 75.6759 99.6524 75.7685 100.469 76.2031Z" fill="#D9EDFF" stroke="#020064" stroke-width="1.50648" stroke-linecap="round" stroke-linejoin="round"/>
<path d="M138.476 82.528C138.532 82.4746 138.59 82.4243 138.651 82.3773C133.904 78.2586 132.733 69.5331 123.604 64.7666C111.587 58.4906 96.7241 59.988 83.6689 76.2911C83.37 76.646 83.1449 77.0568 83.0068 77.4997C82.8687 77.9426 82.8203 78.4086 82.8645 78.8705C82.9087 79.3323 83.0447 79.7806 83.2643 80.1893C83.484 80.5979 83.783 80.9586 84.1438 81.2503C84.5046 81.5419 84.9199 81.7586 85.3655 81.8877C85.8111 82.0169 86.278 82.0558 86.7388 82.0022C87.1997 81.9486 87.6452 81.8037 88.0493 81.5758C88.4534 81.3479 88.8079 81.0416 89.0922 80.675C89.9579 79.6044 90.8277 78.6076 91.7014 77.6846C92.0085 78.0125 92.3764 78.2776 92.7846 78.465C106.444 88.807 109.205 90.1206 112.547 91.4207C117.714 93.4289 119.995 94.399 123.794 97.8383L138.476 82.528ZM114.942 74.6385C113.79 76.032 112.188 76.9789 110.411 77.3151C108.635 77.6513 106.797 77.3557 105.216 76.4795L97.1383 72.7856C101.852 69.3357 106.608 67.8955 111.344 68.5132C115.374 69.0314 116.307 72.5957 114.936 74.6355L114.942 74.6385Z" stroke="#020064" stroke-width="1.50648" stroke-linecap="round" stroke-linejoin="round"/>
<path d="M111.916 75.3273L107.37 68.9293L121.531 58.8705C121.912 58.5998 122.342 58.4068 122.798 58.3026C123.253 58.1983 123.725 58.1848 124.186 58.2629C124.647 58.3409 125.088 58.509 125.483 58.7575C125.879 59.006 126.222 59.3301 126.493 59.7112L126.916 60.3062C127.187 60.6872 127.38 61.1178 127.484 61.5734C127.588 62.029 127.602 62.5007 127.524 62.9615C127.446 63.4223 127.278 63.8633 127.029 64.2591C126.781 64.655 126.457 64.998 126.076 65.2686L111.916 75.3273Z" fill="#B0D9FF"/>
<path d="M111.916 75.3273L107.37 68.9293L121.531 58.8705C121.912 58.5998 122.342 58.4068 122.798 58.3026C123.253 58.1983 123.725 58.1848 124.186 58.2629C124.647 58.3409 125.088 58.509 125.483 58.7575C125.879 59.006 126.222 59.3301 126.493 59.7112L126.916 60.3062C127.187 60.6872 127.38 61.1178 127.484 61.5734C127.588 62.029 127.602 62.5007 127.524 62.9615C127.446 63.4223 127.278 63.8633 127.029 64.2591C126.781 64.655 126.457 64.998 126.076 65.2686L111.916 75.3273Z" stroke="#020064" stroke-width="1.50648" stroke-linecap="round" stroke-linejoin="round"/>
<path d="M107.988 65.2826L117.941 58.2127C118.218 58.0065 118.535 57.8586 118.871 57.7779C119.207 57.6971 119.556 57.6853 119.897 57.743C120.237 57.8007 120.563 57.9268 120.854 58.1136C121.144 58.3005 121.394 58.5443 121.588 58.8303" stroke="#020064" stroke-width="1.50648" stroke-linecap="round" stroke-linejoin="round"/>
<path d="M85.1047 86.8848L78.1131 91.8562C77.9586 91.9637 77.8431 92.1183 77.7839 92.297C77.7247 92.4756 77.725 92.6687 77.7847 92.8471C77.8445 93.0256 77.9604 93.1799 78.1152 93.287C78.27 93.3941 78.4553 93.4481 78.6434 93.441C81.575 93.3205 85.7645 92.7887 85.7027 90.7429L87.1249 89.7335L85.1047 86.8848Z" fill="#B0D9FF" stroke="#020064" stroke-width="1.50648" stroke-linecap="round" stroke-linejoin="round"/>
<path d="M87.6344 90.4414L85.1095 86.8861C84.9757 86.6975 84.9223 86.4635 84.961 86.2355C84.9997 86.0075 85.1274 85.8043 85.3159 85.6704L88.8697 83.1455L92.4054 88.1169L88.8396 90.6403C88.6526 90.7715 88.4217 90.8242 88.1963 90.787C87.971 90.7498 87.7692 90.6257 87.6344 90.4414Z" fill="white"/>
<path d="M87.6344 90.4414L85.1095 86.8861C84.9757 86.6975 84.9223 86.4635 84.961 86.2355C84.9997 86.0075 85.1274 85.8043 85.3159 85.6704L88.8697 83.1455L92.4054 88.1169L88.8396 90.6403C88.6526 90.7715 88.4217 90.8242 88.1963 90.787C87.971 90.7498 87.7692 90.6257 87.6344 90.4414V90.4414Z" stroke="#020064" stroke-width="1.50648" stroke-linecap="round" stroke-linejoin="round"/>
<path d="M91.8968 87.4097L89.372 83.8604C89.2392 83.6738 89.1446 83.4628 89.0934 83.2396C89.0422 83.0164 89.0355 82.7853 89.0737 82.5595C89.1119 82.3337 89.1942 82.1176 89.316 81.9236C89.4377 81.7296 89.5965 81.5615 89.7832 81.429L107.37 68.9297L111.915 75.3277L94.3283 87.8225C94.1416 87.9551 93.9305 88.0497 93.7073 88.1008C93.484 88.1518 93.2528 88.1584 93.027 88.12C92.8012 88.0817 92.5851 87.9992 92.3912 87.8773C92.1973 87.7555 92.0293 87.5965 91.8968 87.4097Z" fill="#B0D9FF"/>
<path d="M91.8968 87.4097L89.372 83.8604C89.2392 83.6738 89.1446 83.4628 89.0934 83.2396C89.0422 83.0164 89.0355 82.7853 89.0737 82.5595C89.1119 82.3337 89.1942 82.1176 89.316 81.9236C89.4377 81.7296 89.5965 81.5615 89.7832 81.429L107.37 68.9297L111.915 75.3277L94.3283 87.8225C94.1416 87.9551 93.9305 88.0497 93.7073 88.1008C93.484 88.1518 93.2528 88.1584 93.027 88.12C92.8012 88.0817 92.5851 87.9992 92.3912 87.8773C92.1973 87.7555 92.0293 87.5965 91.8968 87.4097Z" stroke="#020064" stroke-width="1.50648" stroke-linecap="round" stroke-linejoin="round"/>
<path d="M114.936 74.6358C113.786 76.0284 112.184 76.9749 110.409 77.3116C108.634 77.6483 106.798 77.3541 105.217 76.4798L95.6806 72.111C95.2628 71.9122 94.8097 71.7984 94.3475 71.7764C93.8854 71.7544 93.4235 71.8245 92.9887 71.9827C92.5539 72.1408 92.1549 72.3839 91.8149 72.6977C91.4749 73.0115 91.2008 73.3898 91.0084 73.8106C90.816 74.2313 90.7092 74.6862 90.6942 75.1486C90.6792 75.611 90.7564 76.0718 90.9212 76.5041C91.086 76.9364 91.3351 77.3317 91.654 77.6668C91.973 78.002 92.3555 78.2703 92.7791 78.4563C106.438 88.7998 109.2 90.1119 112.541 91.412" fill="white"/>
<path d="M114.936 74.6358C113.786 76.0284 112.184 76.9749 110.409 77.3116C108.634 77.6483 106.798 77.3541 105.217 76.4798L95.6806 72.111C95.2628 71.9122 94.8097 71.7984 94.3475 71.7764C93.8854 71.7544 93.4235 71.8245 92.9887 71.9827C92.5539 72.1408 92.1549 72.3839 91.8149 72.6977C91.4749 73.0115 91.2008 73.3898 91.0084 73.8106C90.816 74.2313 90.7092 74.6862 90.6942 75.1486C90.6792 75.611 90.7564 76.0718 90.9212 76.5041C91.086 76.9364 91.3351 77.3317 91.654 77.6668C91.973 78.002 92.3555 78.2703 92.7791 78.4563C106.438 88.7998 109.2 90.1119 112.541 91.412" stroke="#020064" stroke-width="1.50648" stroke-linecap="round" stroke-linejoin="round"/>
<path d="M114.936 74.6358C113.786 76.0284 112.184 76.9749 110.409 77.3116C108.634 77.6483 106.798 77.3541 105.217 76.4798L95.6806 72.111C95.2628 71.9122 94.8097 71.7984 94.3475 71.7764C93.8854 71.7544 93.4235 71.8245 92.9887 71.9827C92.5539 72.1408 92.1549 72.3839 91.8149 72.6977C91.4749 73.0115 91.2008 73.3898 91.0084 73.8106C90.816 74.2313 90.7092 74.6862 90.6942 75.1486C90.6792 75.611 90.7564 76.0718 90.9212 76.5041C91.086 76.9364 91.3351 77.3317 91.654 77.6668C91.973 78.002 92.3555 78.2703 92.7791 78.4563C106.438 88.7998 109.2 90.1119 112.541 91.412" fill="white"/>
<path d="M114.936 74.6358C113.786 76.0284 112.184 76.9749 110.409 77.3116C108.634 77.6483 106.798 77.3541 105.217 76.4798L95.6806 72.111C95.2628 71.9122 94.8097 71.7984 94.3475 71.7764C93.8854 71.7544 93.4235 71.8245 92.9887 71.9827C92.5539 72.1408 92.1549 72.3839 91.8149 72.6977C91.4749 73.0115 91.2008 73.3898 91.0084 73.8106C90.816 74.2313 90.7092 74.6862 90.6942 75.1486C90.6792 75.611 90.7564 76.0718 90.9212 76.5041C91.086 76.9364 91.3351 77.3317 91.654 77.6668C91.973 78.002 92.3555 78.2703 92.7791 78.4563C106.438 88.7998 109.2 90.1119 112.541 91.412" stroke="#020064" stroke-width="1.50648" stroke-linecap="round" stroke-linejoin="round"/>
</svg>
