<svg width="152" height="151" viewBox="0 0 152 151" fill="none" xmlns="http://www.w3.org/2000/svg">
<path d="M70.9761 78.9282C70.9761 131.521 71.2021 129.197 70.4488 131.297C69.9579 132.815 69.0504 134.165 67.8298 135.192C66.4703 136.415 64.8461 137.307 63.0844 137.797C62.6822 137.89 41.2502 141.699 19.4944 144.743C11.3096 145.888 5.89309 145.482 6.52958 134.683C6.5341 134.608 4.477 35.3224 4.47323 35.2463C4.2481 27.8818 4.43897 20.5104 5.04494 13.1673C5.45169 8.63809 9.18023 6.83031 13.6402 6.16821C17.3439 5.61985 58.2991 12.863 63.0987 14.8742C64.808 15.683 66.243 16.9748 67.2265 18.5899C71.1252 24.2347 70.0022 32.0187 70.0639 36.9245C70.1641 44.8336 70.1799 35.7849 71.1019 78.9184C71.0606 78.9272 71.0183 78.9305 70.9761 78.9282ZM7.82892 129.993C7.86432 138.186 6.30963 144.576 15.643 143.816C27.2188 142.874 51.1772 138.186 59.5434 137.429C65.4797 136.891 70.369 133.733 70.3148 127.869C69.8899 80.6675 70.4654 90.9319 69.6308 50.0151C69.5284 44.9759 69.389 39.936 69.2964 34.8968C69.1789 28.4943 70.0315 23.8942 66.5365 18.7496C64.1412 15.2252 60.5151 14.3092 54.8176 13.4438C31.4543 9.89449 19.0078 6.96966 14.6789 7.35155C11.5906 7.62422 6.42111 9.54198 6.16727 12.4201C4.66079 29.356 7.8244 128.808 7.82892 129.993Z" fill="#191919"/>
<path d="M80.6914 78.7006C82.1308 27.2286 81.6932 45.4171 81.6616 30.6581C81.6488 24.9727 82.9331 18.5505 87.7048 15.4713C91.9448 12.7363 134.562 5.67917 138.172 6.16878C141.753 6.65688 146.112 8.40364 146.587 11.9687C146.858 14.0025 147.126 16.043 147.198 18.0903C147.89 37.6874 147.098 35.0111 147.009 40.9888C146.934 45.8849 147.156 64.0146 146.783 80.1408C146.437 95.0549 145.469 120.185 145.216 130.148C145.141 133.203 145.805 135.996 144.785 140.382C144.008 143.723 141.414 145.327 138.121 145.208C133.125 144.923 128.151 144.337 123.225 143.452C103.634 140.356 120.057 143.097 98.425 139.427C88.7744 137.789 88.5816 138.024 86.2315 136.739C84.8473 136.067 83.6475 135.068 82.7357 133.828C81.8239 132.589 81.2275 131.146 80.998 129.624C80.8729 128.796 80.9106 132.462 80.9106 78.7096C80.8315 78.7058 80.7637 78.7058 80.6914 78.7006ZM145.715 76.1832C145.686 76.184 145.657 76.1825 145.628 76.1787C145.695 71.4642 145.827 66.7542 145.817 62.0396C145.733 22.9013 146.809 42.4554 145.798 13.4345C145.788 12.6409 145.574 11.8632 145.175 11.1769C144.777 10.4906 144.208 9.91906 143.523 9.51768C140.626 7.64177 137.142 6.89449 133.731 7.41765C127.889 8.09556 120.152 9.60581 111.821 11.0332C96.3882 13.6831 94.6633 13.5483 91.2368 14.7535C87.3199 16.1304 86.1727 16.6366 84.0433 21.0588C82.1233 25.051 82.6069 28.6319 82.4427 38.8745C81.4785 99.1337 81.822 56.1056 81.5599 127.898C81.5032 129.2 81.7641 130.496 82.3201 131.675C82.8761 132.854 83.7105 133.88 84.7514 134.664C86.6049 136.151 88.8418 137.083 91.2029 137.351C102.295 138.528 94.6836 137.93 125.927 142.555C130.018 143.257 134.149 143.701 138.295 143.885C141.291 143.948 143.54 141.892 143.753 139.873C144.368 134.039 143.983 130.931 144.019 125.536C144.039 123.001 143.674 135.958 145.715 76.1832Z" fill="#191919"/>
<path d="M12.8715 131.177C12.5416 126.854 12.0852 116.849 11.46 107.362C10.5033 92.8415 10.8016 86.0721 10.2548 40.3542C10.1501 31.6957 10.8491 25.0167 11.0012 22.3984C20.3316 24.4322 36.4804 25.3715 64.7073 28.6503C65.7844 28.7754 65.7558 28.8055 65.8183 29.9067C66.8119 47.406 66.5716 64.9264 66.7689 82.4408C66.9045 94.4331 67.0936 122.17 67.0936 123.863C57.7383 125.097 59.4354 124.744 48.6392 125.949C17.0588 129.473 15.9666 131.349 12.8715 131.177ZM62.8867 89.3939L62.77 87.8076C63.8373 88.1518 64.8994 88.4893 66.0149 88.8478C66.0149 88.7725 65.7294 44.9045 65.1223 30.1975C65.1035 29.7275 64.9626 29.5761 64.5069 29.5331C45.2993 27.7254 22.9567 25.791 12.0015 23.4846C11.9262 23.7949 11.5564 33.9411 11.5601 37.9875C11.5662 44.6273 12.0595 55.1139 12.0595 95.6857C12.4068 95.7852 12.0595 95.8108 13.6165 94.8753C15.0921 93.9887 16.573 93.1127 18.0478 92.2299C19.0519 92.4626 20.0529 92.6878 21.0608 92.9206C18.1257 94.0666 15.3226 95.5252 12.6998 97.2713C12.5467 97.3492 12.4224 97.4739 12.3449 97.6272C12.2674 97.7805 12.2408 97.9545 12.2689 98.124C12.4475 101.107 12.5846 104.09 12.7495 107.068C14.1483 132.314 13.9087 126.948 13.9087 129.875C45.1773 124.357 43.9472 125.545 66.2439 123.031C66.2439 109.281 66.3335 120.143 66.0451 90.9117C66.0413 90.5238 65.9923 90.2797 65.5404 90.1698C64.6478 89.9506 63.7688 89.6606 62.8867 89.3939Z" fill="#191919"/>
<path d="M34.7347 135.788C33.3036 134.99 33.6049 131.577 36.9613 131.296C39.4688 131.087 41.9817 130.913 44.4937 130.724C47.0773 130.529 47.4894 133.279 45.6582 134.483C43.8271 135.687 36.1674 136.585 34.7347 135.788ZM38.6395 135.221C40.8292 134.925 43.4294 134.719 45.43 133.891C45.6353 133.824 45.8203 133.705 45.9676 133.547C46.1148 133.389 46.2197 133.196 46.2723 132.986C46.3249 132.777 46.3237 132.557 46.2686 132.348C46.2135 132.139 46.1064 131.947 45.9573 131.791C45.2402 131.06 44.9404 131.299 36.9184 131.918C34.5675 132.098 33.6674 135.066 36.007 135.215C36.782 135.265 37.5579 135.221 38.6395 135.221Z" fill="#191919"/>
<path d="M37.2461 18.1829C37.2461 18.0323 37.2566 15.7861 39.4998 15.7861C42.7124 15.7861 43.6321 21.6704 40.2809 21.6704C39.6113 21.6697 37.2461 21.4799 37.2461 18.1829ZM39.7672 16.5168C39.2751 16.5649 38.8183 16.7933 38.4845 17.1581C38.1508 17.5228 37.9638 17.9981 37.9594 18.4925C37.9594 18.5468 38.0061 21.0249 40.1845 21.0249C42.8397 21.0249 41.9795 16.5168 39.7672 16.5168Z" fill="#191919"/>
<path d="M138.978 131.167C138.622 131.193 138.265 131.19 137.91 131.158C131.357 130.023 124.834 128.718 118.251 127.786C109.004 126.477 103.785 126.28 86.0731 124.028C84.7782 123.863 84.7843 123.819 84.788 122.505C84.8573 96.4936 85.4509 29.6586 86.2139 28.8014C86.4399 28.5491 87.0485 28.6417 87.4899 28.5928C111.88 25.8736 113.442 25.9971 132.942 23.7374C135.115 23.4858 137.269 23.0594 139.427 22.7039C139.893 22.6286 140.349 22.5005 140.873 22.3838C140.911 22.9276 140.935 23.363 140.979 23.7954C142.104 34.9124 141.399 46.0438 141.309 57.1707C141.083 85.1159 141.666 88.3699 140.092 112.474C139.55 120.796 139.22 129.346 138.978 131.167ZM86.1002 96.6684C85.8802 96.9263 85.7536 97.2509 85.7409 97.5896C85.7364 98.7029 85.5721 120.497 85.6294 121.628C88.1949 119.096 90.6008 116.555 93.7388 114.871C92.7053 112.957 91.5423 111.393 92.5215 107.072C94.8747 96.688 100.272 87.4879 100.025 87.3651C100.025 87.5188 93.3855 88.5635 86.0994 96.6669L86.1002 96.6684ZM111.841 57.8012C111.68 57.703 111.493 57.6575 111.305 57.671C111.117 57.6845 110.938 57.7563 110.793 57.8765C109.777 58.5491 108.737 58.6184 108.072 57.9157C107.847 57.7025 107.574 57.5464 107.276 57.4603C106.978 57.3742 106.664 57.3606 106.36 57.4208C106.737 58.5506 106.429 58.9988 105.225 59.1186C105.131 59.1475 105.044 59.1968 104.971 59.2631C104.898 59.3294 104.841 59.411 104.803 59.502C104.507 60.2552 104.119 61.0725 103.255 61.0085C102.637 60.991 102.037 61.2196 101.587 61.6442C101.402 61.7745 101.155 61.819 100.966 61.9455C100.835 62.0329 100.665 62.2076 100.67 62.3334C100.987 68.9785 100.485 73.858 104.657 76.526C105.83 77.197 107.045 77.7915 108.295 78.3059C108.721 78.5055 109.088 78.7322 109.081 79.2663C109.062 80.8134 109.045 82.3659 108.984 83.913C108.937 85.1009 105.718 85.8782 104.827 86.1584C105.882 86.7844 106.589 87.866 110.123 87.9662C112.224 88.0168 114.313 87.6406 116.264 86.8604C117.278 86.4627 118.243 85.9437 119.228 85.4775C119.16 85.2289 116.088 84.4124 116.012 84.3913C115.812 84.3487 115.636 84.2316 115.518 84.0638C115.401 83.896 115.353 83.69 115.382 83.4874C115.437 78.4467 115.392 80.131 115.474 78.6667C113.092 79.4674 112.687 79.5111 112.141 78.968C112.443 78.8038 112.714 78.6343 113.004 78.5078C113.682 78.2132 114.372 77.9684 115.032 77.6445C119.04 75.6771 120.213 73.1718 121.209 68.7827C122.014 69.1706 122.756 69.5442 123.576 69.0199C123.538 68.9711 123.507 68.9174 123.484 68.8602C123.028 68.0505 123.559 67.9729 124.07 68.1959C124.325 68.2298 124.43 68.6674 124.929 68.2637C127.135 66.48 124.9 63.3488 122.756 64.6602C122.621 64.7493 122.469 64.8096 122.31 64.8371C122.151 64.8646 121.988 64.8587 121.831 64.82C121.674 64.7812 121.527 64.7102 121.399 64.6117C121.271 64.5131 121.165 64.3891 121.087 64.2474C120.943 63.9148 120.839 63.5664 120.777 63.2094C119.337 63.3646 119.017 63.0347 118.743 61.0077C117.892 61.0077 117.021 61.0522 116.284 60.2846C115.44 59.4056 115.606 58.4768 115.707 57.4087C114.546 58.2192 113.477 58.6591 111.84 57.8004L111.841 57.8012ZM139.875 23.4406C138.929 23.6666 138.056 23.9543 137.163 24.0763C120.974 26.2886 129.69 25.2943 87.505 29.5087C86.9777 29.5614 86.7577 29.688 86.7434 30.2943C86.632 34.9072 86.4128 39.52 86.3502 44.1374C86.3502 44.2127 85.6972 94.5714 85.7928 95.2402C86.183 95.4572 89.2344 90.1574 97.7099 86.9222C103.848 84.5789 104.882 85.5167 107.745 83.7503C107.827 83.6826 107.893 83.5982 107.939 83.5028C107.985 83.4074 108.01 83.3033 108.012 83.1974C108.012 82.0909 107.91 80.9852 107.964 79.8832C107.993 79.2806 107.755 79.093 107.265 78.8979C105.635 78.3867 104.121 77.5575 102.812 76.4582C102.731 76.4048 102.64 76.3683 102.544 76.3508C102.448 76.3333 102.35 76.3353 102.255 76.3565C101.512 76.4512 100.757 76.3471 100.068 76.0547C99.3785 75.7624 98.7789 75.2924 98.3305 74.6926C97.6757 73.7224 97.4159 72.5389 97.604 71.3836C97.7921 70.2283 98.4141 69.1884 99.3429 68.4761C99.5185 68.3021 99.6225 68.0685 99.6344 67.8215C99.6736 65.9829 99.6803 64.1397 99.6781 62.3018C99.6766 62.2082 99.6558 62.1159 99.6169 62.0307C99.578 61.9455 99.5219 61.8693 99.4521 61.8069C97.9351 60.7418 98.8397 59.8417 98.7742 59.0621C98.6792 58.4545 98.6176 57.8423 98.5897 57.228C98.5725 55.6074 98.9066 54.0024 99.5689 52.5232C99.1479 52.5247 98.7393 52.3808 98.4122 52.1158C98.0851 51.8507 97.8596 51.4809 97.7739 51.0687C97.5984 50.0789 98.3855 49.618 99.0446 49.1381C97.7837 46.7225 98.5844 45.0443 100.112 44.4771C99.9169 43.783 99.9045 43.0503 100.076 42.35C100.248 41.6497 100.597 41.0057 101.091 40.4804C101.496 39.8827 102.077 39.4251 102.752 39.1706C103.428 38.9161 104.166 38.8771 104.865 39.059C105.392 37.0554 106.907 36.3278 108.673 36.095C109.533 36.0198 110.4 36.1286 111.215 36.4144C112.031 36.7001 112.776 37.1561 113.401 37.7522C114.555 36.3963 115.568 36.2351 117.054 37.1307C118.114 37.7072 118.959 38.6108 119.464 39.7068C120.813 38.8677 121.95 39.0394 123.145 40.2446C123.868 40.9883 124.323 41.9503 124.441 42.9804C124.592 44.0666 123.975 44.853 123.248 45.6725C123.718 45.5177 124.225 45.5124 124.698 45.6574C125.171 45.8024 125.588 46.0906 125.891 46.4822C126.219 46.8439 126.403 47.314 126.407 47.8027C126.41 48.2913 126.234 48.7641 125.91 49.1306C126.278 49.2936 126.605 49.5354 126.868 49.839C127.131 50.1426 127.324 50.5004 127.433 50.887C127.543 51.2737 127.565 51.6796 127.5 52.076C127.435 52.4725 127.283 52.8497 127.055 53.1808C127.409 53.4574 127.673 53.8326 127.813 54.2591C127.954 54.6855 127.965 55.1441 127.846 55.5768C127.737 55.9944 127.478 56.3571 127.118 56.5953C126.758 56.8335 126.323 56.9303 125.896 56.8671C125.896 59.5645 124.531 59.7739 124.616 60.1814C124.836 61.3439 124.715 62.5454 124.266 63.6403C127.074 64.334 127.516 66.8416 125.27 69.2082C125.693 69.8169 125.957 70.5213 126.039 71.2578C126.121 71.9943 126.019 72.7396 125.74 73.4264C125.514 74.1776 125.021 74.8199 124.353 75.2318C123.685 75.6437 122.89 75.7968 122.117 75.662C121.398 75.442 120.7 75.1579 120.031 74.8131C119.103 76.0856 117.935 77.1648 116.593 77.9903C116.216 78.2162 116.373 78.7782 116.414 82.4577C116.423 83.3744 116.404 83.4038 117.317 83.617C126.213 85.6937 129.329 85.7532 139.857 91.9501C139.857 86.7113 140.048 59.1088 140.192 47.2686C140.348 34.7317 140.486 36.0287 139.875 23.4406ZM129.623 88.3315C128.556 87.8713 130.584 88.5379 121.936 86.013C119.857 85.4059 121.258 86.23 117.575 87.8125C114.745 89.1315 111.593 89.6047 108.5 89.1751C104.037 88.4656 104.045 86.2594 103.368 86.3671C102.284 86.5396 101.313 86.8085 100.817 88.0061C99.2194 91.8687 95.6949 98.5244 93.6876 107.49C93.4012 108.53 93.328 109.616 93.4722 110.685C93.6164 111.753 93.975 112.782 94.5267 113.708C96.7578 117.355 96.8866 119.016 97.5532 123.845C97.7317 125.142 97.4598 123.18 130.201 128.424C131.826 123.829 132.824 119.116 134.125 114.523C132.613 113.846 131.24 112.896 130.074 111.72C126.362 107.843 125.939 101.968 126.475 96.6548C126.68 93.6306 127.776 90.7346 129.623 88.3315ZM133.897 113.121C133.168 111.818 132.874 111.464 132.548 110.803C132.465 110.633 132.592 110.362 132.623 110.134C132.832 110.182 133.094 110.167 133.244 110.289C133.533 110.518 133.781 110.796 133.977 111.109C137.894 117.652 137.18 116.577 138.313 118.961C138.468 118.015 138.146 121.381 139.782 94.084C139.801 93.923 139.771 93.7599 139.695 93.6167C139.618 93.4735 139.5 93.3572 139.356 93.2833C136.79 91.655 134.103 90.225 131.319 89.0057C131.165 88.91 130.981 88.8778 130.804 88.9157C130.628 88.9537 130.473 89.0589 130.373 89.209C127.696 92.1633 127.386 97.8043 127.593 101.801C127.641 104.725 128.543 107.57 130.188 109.988C131.046 111.411 132.349 112.513 133.895 113.124L133.897 113.121ZM137.879 129.875C138.188 122.381 138.243 122.538 138.049 122.012C137.273 119.68 136.292 117.42 135.119 115.261C134.023 119.878 133.085 124.355 131.365 128.643C133.526 129.057 135.669 129.458 137.876 129.877L137.879 129.875ZM96.5054 124.248C96.0301 121.294 95.9028 118.355 94.2404 115.812C91.2533 117.94 88.5035 120.382 86.0384 123.097C89.596 123.489 93.0255 123.867 96.5032 124.251L96.5054 124.248ZM120.655 51.3813C120.482 51.6308 120.275 51.8544 120.039 52.0457C119.864 52.1442 119.725 52.2966 119.644 52.4802C119.562 52.6639 119.542 52.8689 119.587 53.0648C119.658 53.9445 119.388 54.8178 118.834 55.5045C118.58 55.7741 118.303 56.0206 118.005 56.2412C120.508 58.0558 122.424 60.1799 123.353 63.2019C123.46 62.9563 123.552 62.7048 123.63 62.4487C123.809 61.7627 123.844 61.0468 123.732 60.3465C123.62 59.6463 123.364 58.977 122.98 58.3812C122.857 58.163 122.75 57.9365 122.659 57.7032C123.625 57.7567 123.814 58.5815 124.294 59.105C125.119 57.7228 125.214 56.77 124.52 55.6514C123.682 54.3167 122.759 52.4019 120.653 51.3836L120.655 51.3813ZM112.223 57.1752C112.606 57.2091 112.965 57.2716 113.319 57.2716C113.664 57.2986 114.011 57.2452 114.332 57.1157C114.653 56.9861 114.94 56.784 115.17 56.525C115.399 56.2661 115.566 55.9575 115.657 55.6234C115.747 55.2892 115.759 54.9386 115.691 54.5991C115.453 52.7914 114.648 51.1026 112.916 50.4864C111.185 49.8703 110.214 50.2484 110.303 52.3394C110.311 52.7089 110.409 53.0708 110.589 53.394C112.077 55.8578 113.012 55.7862 112.223 57.1752ZM117.694 46.4408L117.811 46.2811C114.831 43.8233 109.023 43.1401 108.444 46.5071C108.387 46.9671 108.378 47.4318 108.416 47.8938C108.437 48.4278 109.478 48.9363 109.88 48.5928C111.821 46.9357 114.14 47.4479 114.537 47.1812C115.476 46.586 116.588 46.3251 117.694 46.4408ZM110.458 49.0553C110.822 49.5743 110.826 49.6089 111.428 49.4922C113.853 49.0206 116.988 52.0072 116.535 55.8412C116.929 55.6845 117.287 55.4473 117.584 55.1448C117.882 54.8423 118.113 54.481 118.263 54.0842C118.413 53.6873 118.479 53.2634 118.456 52.8397C118.434 52.4159 118.323 52.0016 118.131 51.6231C116.779 48.5378 113.78 47.4501 110.458 49.0553ZM103.09 52.6882C102.995 53.1397 103.004 53.6068 103.116 54.0544C103.228 54.502 103.44 54.9183 103.736 55.2722C104.032 55.6261 104.404 55.9082 104.825 56.0974C105.246 56.2867 105.704 56.3781 106.165 56.3647C107.8 56.4401 108.929 56.4694 109.992 55.2349C110.094 55.116 110.168 54.9755 110.208 54.824C110.248 54.6724 110.252 54.5139 110.222 54.3602C110.192 54.2065 110.127 54.0617 110.032 53.9367C109.938 53.8118 109.816 53.7099 109.677 53.6388C109.105 53.3721 108.486 53.2232 107.856 53.2008C107.227 53.1784 106.598 53.283 106.01 53.5084C105.765 53.6493 105.475 53.691 105.2 53.6251C104.925 53.5591 104.685 53.3905 104.53 53.1537C104.229 52.8102 103.955 52.8539 103.09 52.6882ZM121.77 70.2809C121.55 71.5894 121.159 72.8631 120.605 74.0689C122.498 75.0579 124.048 74.5434 124.719 72.7131C124.867 72.2905 124.921 71.8409 124.877 71.3953C124.834 70.9498 124.693 70.5191 124.466 70.1332C124.398 70.0596 124.313 70.0029 124.219 69.9675C124.125 69.932 124.024 69.9189 123.923 69.9291C123.233 70.0104 122.549 70.1498 121.774 70.2809H121.77ZM107.742 48.3909C107.512 47.7752 107.428 47.1146 107.497 46.4611C107.566 45.8075 107.786 45.1789 108.139 44.6247C106.755 45.0949 105.514 45.9115 104.535 46.9967C104.07 47.4525 103.718 48.0101 103.506 48.6254C103.294 49.2408 103.228 49.8969 103.313 50.5422C103.316 50.8154 103.38 51.0846 103.501 51.3297C103.622 51.5748 103.796 51.7896 104.011 51.9583C104.152 49.9773 104.88 48.6041 107.742 48.3909ZM109.555 52.5134C109.477 52.0364 109.508 51.5477 109.646 51.0845C109.785 50.6214 110.028 50.196 110.356 49.8409C109.433 49.4112 108.404 49.2629 107.397 49.4146C106.83 49.4805 106.284 49.6692 105.797 49.9675C104.906 50.6522 104.807 51.7278 105.36 52.9699C106.616 51.6743 108.066 52.063 109.555 52.5134ZM102.701 55.4819C102.677 55.4292 102.604 55.2929 102.54 55.152C102.311 54.7453 102.183 54.2889 102.167 53.822C102.152 53.355 102.25 52.8913 102.453 52.4705C102.557 52.3086 102.603 52.1162 102.584 51.9247C102.565 51.7332 102.481 51.5539 102.347 51.4159C102.179 51.577 101.99 51.7142 101.784 51.8234C101.199 52.0361 100.693 52.4239 100.335 52.9341C99.9776 53.4443 99.7858 54.0522 99.7858 54.6752C99.6811 55.7177 99.5817 56.7557 99.4657 57.8863C100.631 57.0201 101.645 56.2631 102.697 55.4819H102.701ZM99.7715 69.2278C98.549 70.6974 98.3027 72.1768 99.0529 73.7247C99.5802 74.8056 100.586 75.1453 101.832 75.2816C100.359 73.4821 100.171 71.3527 99.7677 69.2278H99.7715ZM119.318 51.4468C119.669 51.0615 119.871 50.5641 119.889 50.0433C119.907 49.5226 119.739 49.0125 119.415 48.6041C119 48.0709 118.42 47.6903 117.766 47.5219C117.112 47.3534 116.42 47.4066 115.8 47.6731C116.607 48.0376 117.333 48.5589 117.936 49.2068C118.54 49.8547 119.008 50.6161 119.314 51.4468H119.318ZM108.471 57.3304C109.07 57.4464 109.689 57.3721 110.243 57.118C110.797 56.8639 111.257 56.4427 111.56 55.9135C111.347 55.6876 111.133 55.4533 110.901 55.2055C110.443 56.3022 110.147 56.5591 108.469 57.3304H108.471Z" fill="#191919"/>
<path d="M115.705 136.186C111.553 135.573 106.394 135.971 105.248 133.319C105.109 133.05 105.043 132.749 105.055 132.446C105.066 132.143 105.156 131.848 105.315 131.59C105.474 131.332 105.697 131.12 105.963 130.973C106.228 130.827 106.526 130.751 106.83 130.754C107.98 130.742 106.857 130.775 114.769 131.281C118.229 131.503 118.611 134.902 117.161 135.763C116.697 135.97 116.207 136.112 115.705 136.186ZM107.537 131.302C105.255 131.159 105.109 133.155 106.305 133.829C106.68 134.027 107.077 134.179 107.489 134.281C110.228 134.985 113.052 135.304 115.88 135.227C117.32 135.213 117.303 134.239 117.043 133.306C116.921 132.864 116.29 132.013 114.701 131.885C108.25 131.365 107.904 131.37 107.537 131.302Z" fill="#191919"/>
<path d="M112.36 15.7627C113.588 15.7627 114.764 16.7502 114.635 17.8718C114.559 21.8353 111.87 21.693 111.772 21.693C111.259 21.693 109.495 21.6734 109.495 19.2201C109.494 17.1411 111.068 15.7627 112.36 15.7627ZM111.7 21.0301C113.476 21.0301 113.894 19.373 113.894 18.4842C113.914 17.989 113.738 17.5059 113.406 17.1387C113.073 16.7716 112.609 16.5498 112.114 16.5212C109.845 16.5212 109.089 21.0301 111.697 21.0301H111.7Z" fill="#191919"/>
<path d="M24.65 27.2726C23.5608 26.9894 15.4394 26.2799 15.3565 26.2738C14.9151 26.24 15.0288 28.2775 15.0221 40.1696C15.0221 41.1059 15.0168 41.1345 15.9335 41.1157C18.8199 41.0562 21.7056 40.9794 24.5957 40.9071C25.3716 40.8875 25.4868 40.8054 25.4929 40.0438C25.5225 36.1687 25.5451 32.2932 25.5606 28.4176C25.5606 27.5642 25.4801 27.4888 24.65 27.2726ZM16.1278 40.4657C16.1278 37.3435 15.7625 37.2471 17.5778 35.9989C17.7414 35.9005 17.9155 35.8207 18.0968 35.7609C18.1276 35.7481 18.1619 35.7464 18.1938 35.7561C18.2257 35.7659 18.2532 35.7865 18.2715 35.8144C18.4944 36.2066 18.6083 36.6513 18.6015 37.1024C18.5948 37.5535 18.4676 37.9945 18.2331 38.3799C18.093 38.5517 17.6479 38.6278 17.7382 38.6278C17.7669 38.4726 17.8015 38.3174 17.8301 38.1622C17.6795 38.2052 17.4535 38.2052 17.394 38.3076C17.0754 38.8733 16.2687 40.3158 16.1278 40.4657ZM17.8354 40.3497C17.4519 40.3915 17.0665 40.4141 16.6807 40.4174C16.8447 40.0493 17.041 39.6964 17.2675 39.3629C17.2675 39.3629 17.8497 40.3203 17.8354 40.3504V40.3497ZM22.2441 39.9128C22.1944 40.0544 22.4294 39.9271 18.1405 40.199C18.1103 40.2011 18.0803 40.1932 18.055 40.1766C18.0297 40.16 18.0105 40.1356 18.0004 40.1071C17.8497 39.6657 17.7872 39.6032 17.8934 39.5203C19.3509 38.3792 19.5716 37.473 18.8877 35.3022C19.189 35.2269 19.3396 35.1011 19.5957 35.2269C20.4379 35.6321 21.3417 35.8182 22.0988 35.1395C22.2102 35.4016 22.3082 35.5914 22.3752 35.8039C22.5258 36.2641 22.6155 36.7409 22.7925 37.1913C22.9406 37.5075 22.9964 37.859 22.9535 38.2055C22.9106 38.552 22.7707 38.8793 22.5499 39.1497C22.4103 39.3873 22.3072 39.6445 22.2441 39.9128ZM18.8395 31.7348C18.9066 31.7027 18.9818 31.6916 19.0553 31.7029C19.1288 31.7142 19.1971 31.7474 19.2515 31.7981C19.3177 31.8722 19.3998 31.9302 19.4918 31.9678C19.5837 32.0054 19.683 32.0215 19.7821 32.015C19.8812 32.0084 19.9775 31.9794 20.0638 31.9301C20.15 31.8808 20.2238 31.8124 20.2797 31.7303C20.4559 31.429 20.8823 31.2784 21.1836 31.066C21.344 31.2354 21.4457 31.4426 21.5963 31.4833C21.7698 31.5027 21.9295 31.5869 22.0436 31.719C22.1577 31.8511 22.2178 32.0214 22.2117 32.1958C22.2426 32.7487 22.3767 33.2865 21.8351 33.5931C21.3643 33.859 21.2325 34.0684 21.399 34.7983C21.625 35.8023 20.1614 35.138 20.1614 35.138C20.0409 35.1478 20.0936 34.2597 20.0936 34.2597C20.1082 34.2125 20.1132 34.1629 20.1083 34.1137C20.1034 34.0645 20.0887 34.0169 20.065 33.9735C19.8601 33.7174 19.9377 33.8093 19.7012 33.5178C19.5473 33.2284 19.4316 32.9202 19.357 32.6011C19.3223 32.5257 18.8809 32.4753 18.7792 32.3148C18.6346 32.0851 18.7031 31.7499 18.8395 31.7348ZM18.6406 31.3906C18.6215 31.1471 18.615 30.9027 18.621 30.6585C18.9238 30.7526 19.2451 30.7704 19.5565 30.7103C19.8678 30.6503 20.1594 30.5142 20.4055 30.3142C20.5312 30.2 20.6923 30.1324 20.8619 30.1226C21.0315 30.1129 21.1993 30.1617 21.3372 30.2608C21.7018 30.4867 22.1613 30.2231 22.4332 30.2608C22.7578 30.3059 22.559 31.0758 22.5402 31.0607C22.2459 30.8845 21.8937 30.8322 21.5609 30.9153C21.4026 30.987 21.231 31.0245 21.0572 31.0254C20.8834 31.0263 20.7114 30.9906 20.5524 30.9206C20.5079 30.8957 18.6934 31.42 18.6406 31.3906ZM23.9434 40.1508L23.0396 40.0679C23.0181 40.0657 22.9974 40.0586 22.9791 40.0473C22.9607 40.036 22.9451 40.0207 22.9335 40.0025C22.9219 39.9844 22.9144 39.9639 22.9118 39.9424C22.9092 39.921 22.9114 39.8993 22.9183 39.8789L23.1608 39.2047C23.1692 39.1818 23.1832 39.1615 23.2017 39.1456C23.2202 39.1297 23.2424 39.1188 23.2663 39.1139C23.2902 39.1091 23.3149 39.1105 23.3381 39.1179C23.3614 39.1254 23.3823 39.1387 23.3988 39.1565L24.0587 39.9098C24.0786 39.9308 24.0916 39.9573 24.0961 39.9859C24.1006 40.0145 24.0963 40.0438 24.0839 40.0699C24.0714 40.096 24.0513 40.1177 24.0262 40.1321C24.0011 40.1466 23.9723 40.1531 23.9434 40.1508ZM24.4481 39.3599C24.021 38.9426 23.5246 38.749 23.5849 37.9973C23.5233 37.424 23.3625 36.8658 23.1096 36.3477C23.0418 36.1293 22.9785 35.9116 22.8836 35.5944C24.6846 36.3643 24.4511 37.354 24.4511 39.3599H24.4481ZM24.647 29.0962C24.6311 29.8548 24.5159 34.9173 24.4383 35.9696C22.8934 34.3682 21.4954 34.7229 21.518 34.3644C21.5316 34.2434 21.5909 34.1321 21.6837 34.0533C21.8147 33.9503 21.9526 33.8565 22.0965 33.7724C22.1931 33.7162 22.2775 33.6414 22.3449 33.5523C22.4123 33.4632 22.4612 33.3616 22.4889 33.2534C22.5357 32.8635 22.5182 32.4685 22.437 32.0843C22.3677 31.7401 22.5273 31.8584 22.6215 31.5315C22.7499 31.0706 22.7626 30.5852 22.6585 30.1182C22.5545 29.6513 22.3368 29.2172 22.0249 28.8545C21.7869 28.5825 21.4864 29.0051 21.3651 28.7791C21.3228 28.6792 21.2539 28.5928 21.1658 28.5294C21.0777 28.466 20.9739 28.4281 20.8657 28.4198C20.1765 28.4756 20.3219 28.6661 19.9927 28.7354C19.7208 28.7927 19.4481 28.5547 19.2312 28.7159C18.9728 28.9079 18.9999 29.3764 18.8478 29.6325C18.3077 30.544 18.4847 30.6683 18.4794 30.9884C18.4827 31.2199 18.5356 31.448 18.6346 31.6573C18.6851 31.7695 18.264 32.2553 19.0368 32.6666C19.2402 32.7743 19.2229 33.2278 19.3381 33.4198C19.4964 33.6269 19.6682 33.8232 19.8526 34.0074C20.0115 34.2213 19.8383 34.5015 19.7991 34.6378C18.5178 34.8386 17.3128 35.3759 16.3071 36.1948C16.2144 36.2769 16.1617 27.3909 16.1617 27.3909C16.1611 27.3706 16.165 27.3505 16.1731 27.3319C16.1812 27.3132 16.1933 27.2967 16.2086 27.2833C16.2238 27.2699 16.2419 27.26 16.2614 27.2544C16.2809 27.2488 16.3014 27.2476 16.3214 27.2508C24.6214 28.5245 24.6854 27.3819 24.65 29.0962H24.647Z" fill="#191919"/>
<path d="M58.8549 44.5888C58.3404 45.214 57.7687 45.7864 57.206 46.3732C56.7541 46.844 56.3021 46.4561 56.6577 45.9514C57.2378 45.1788 57.8697 44.4464 58.549 43.7595C58.7916 43.4198 60.2032 42.61 58.8549 44.5888Z" fill="#191919"/>
<path d="M59.8098 51.8335C59.2301 51.8068 58.6539 51.7289 58.0879 51.6008C57.7535 51.5081 57.3512 50.834 58.1805 50.834C58.8012 50.8446 59.4196 50.9111 60.0282 51.0328C61.726 51.13 61.2937 51.9706 59.8098 51.8335Z" fill="#191919"/>
<path d="M59.7372 48.3033C59.0201 48.4247 58.3167 48.6164 57.6372 48.8757C57.3509 49.0264 57.0082 48.6837 57.317 48.3485C57.401 48.2435 57.5115 48.1628 57.6372 48.115C58.3407 47.9432 59.0638 47.8461 59.7613 47.6397C60.9989 47.2796 60.6878 48.2159 59.7372 48.3033Z" fill="#191919"/>
<path d="M55.9206 117.881C55.782 121.62 53.0033 123.046 51.0652 121.497C50.0952 120.606 49.5168 119.368 49.456 118.052C49.3952 116.737 49.8569 115.45 50.7405 114.474C52.7833 112.516 55.7812 114.285 55.9206 117.881ZM51.8606 117.887C51.8222 117.872 51.7785 117.857 51.7393 117.843C51.783 117.644 51.8026 117.28 51.8659 117.27C52.3499 117.19 52.842 117.17 53.3309 117.212C53.7671 117.261 53.6706 117.664 53.636 117.965C53.5343 118.853 54.3568 118.56 54.7952 118.537C55.1929 118.516 55.3067 118.304 55.1982 117.95C54.9451 117.121 54.5097 116.434 53.5825 116.321C52.9336 116.241 52.2775 116.237 51.6278 116.311C51.2773 116.359 50.9538 116.526 50.7112 116.784C50.4686 117.041 50.3216 117.374 50.2946 117.727C50.2464 117.975 50.333 118.459 50.4543 118.493C50.8255 118.586 51.2145 118.583 51.5842 118.484C51.7152 118.461 51.7687 118.1 51.8606 117.887Z" fill="#38A1FF"/>
<path d="M29.888 125.075C28.4979 125.012 27.1861 124.413 26.2272 123.404C25.2684 122.396 24.7368 121.055 24.7437 119.664C24.7506 118.272 25.2955 116.937 26.2643 115.938C27.2331 114.939 28.5508 114.353 29.9415 114.304C30.6398 114.327 31.3265 114.489 31.9621 114.779C32.5977 115.069 33.1696 115.482 33.6448 115.994C34.12 116.507 34.4891 117.108 34.731 117.763C34.9728 118.419 35.0825 119.116 35.0538 119.814C35.064 121.196 34.5261 122.525 33.5579 123.512C32.5896 124.498 31.27 125.06 29.888 125.075ZM34.2568 119.768C34.2316 118.922 33.9578 118.102 33.4696 117.41C32.9814 116.718 32.3005 116.185 31.5115 115.877C30.7226 115.569 29.8606 115.501 29.0328 115.679C28.205 115.858 27.4482 116.276 26.8564 116.882C26.2647 117.488 25.8643 118.254 25.7051 119.086C25.5459 119.918 25.6349 120.778 25.9611 121.559C26.2872 122.341 26.8361 123.009 27.5394 123.481C28.2426 123.953 29.0691 124.207 29.9159 124.213C30.4927 124.206 31.0625 124.086 31.5928 123.859C32.1231 123.632 32.6035 123.303 33.0064 122.89C33.4093 122.477 33.7269 121.989 33.9409 121.453C34.155 120.918 34.2613 120.345 34.2538 119.768H34.2568Z" fill="#191919"/>
<path d="M46.8597 118.691C46.7181 122.726 42.8585 124.591 40.3456 122.256C39.4034 121.319 38.8398 120.068 38.7629 118.742C38.6861 117.415 39.1013 116.107 39.9291 115.068C40.306 114.601 40.791 114.233 41.3422 113.996C41.8933 113.759 42.494 113.659 43.0921 113.707C43.6903 113.754 44.2679 113.947 44.7748 114.267C45.2818 114.588 45.703 115.028 46.0017 115.548C46.5963 116.486 46.8952 117.581 46.8597 118.691ZM46.2488 118.73C46.2654 114.889 42.7952 113.307 40.6469 115.441C39.9246 116.234 39.5099 117.26 39.4778 118.332C39.4458 119.404 39.7985 120.452 40.4722 121.287C40.7609 121.666 41.1345 121.971 41.563 122.18C41.9915 122.388 42.4629 122.492 42.9392 122.485C43.4156 122.478 43.8835 122.359 44.3054 122.137C44.7273 121.916 45.0914 121.599 45.3683 121.211C45.9215 120.501 46.2303 119.63 46.2488 118.73Z" fill="#191919"/>
<path d="M137.92 36.96C137.905 37.7502 137.802 38.5418 137.722 39.3312C137.691 39.6272 137.591 39.8683 137.208 39.9187C130.196 40.8332 130.819 40.9635 129.044 40.6456C128.928 40.6062 128.822 40.5387 128.738 40.4492C128.653 40.3596 128.592 40.2507 128.559 40.1319C127.752 32.2229 127.942 34.5783 128.307 27.3901C128.298 27.1939 128.365 27.0019 128.493 26.853C128.621 26.7042 128.801 26.6099 128.996 26.5894C131.412 26.1262 133.817 25.6102 136.242 25.217C137.76 24.9729 137.984 25.1974 138.022 26.7235C138.067 28.5282 137.952 35.3526 137.92 36.96ZM136.478 33.5335C136.589 31.1186 136.696 28.7271 136.808 26.3024C134.322 26.6715 131.895 27.03 129.382 27.3991V34.7229C129.61 34.5228 129.859 34.3487 130.124 34.2039C130.888 33.8875 130.808 34.515 130.478 34.747C129.736 35.269 129.203 35.7804 129.401 36.8561C129.496 37.8056 129.508 38.7616 129.435 39.7131L136.551 38.6797C136.551 37.3555 136.532 36.1427 136.561 34.9308C136.58 34.75 136.54 34.5679 136.447 34.4115C136.355 34.2551 136.214 34.1326 136.046 34.0623C135.326 33.6729 135.293 33.3934 136.478 33.5335Z" fill="#191919"/>
<path d="M119.567 119.865C119.605 118.915 119.923 117.997 120.48 117.225C121.037 116.454 121.809 115.864 122.7 115.53C123.59 115.195 124.559 115.13 125.487 115.342C126.414 115.555 127.258 116.037 127.913 116.726C128.568 117.416 129.006 118.284 129.171 119.221C129.336 120.158 129.221 121.122 128.841 121.994C128.46 122.867 127.832 123.607 127.033 124.124C126.234 124.641 125.301 124.911 124.349 124.9C123.705 124.884 123.069 124.741 122.48 124.479C121.891 124.217 121.359 123.842 120.914 123.374C120.47 122.907 120.123 122.356 119.891 121.754C119.66 121.152 119.55 120.51 119.567 119.865ZM127.939 120.001C127.786 119.506 127.498 119.064 127.106 118.726C126.713 118.388 126.234 118.168 125.722 118.09C124.768 117.949 123.805 117.87 122.841 117.852C122.409 117.837 121.983 117.952 121.619 118.183C121.254 118.415 120.968 118.751 120.799 119.148C120.299 120.202 120.703 120.306 121.721 120.442C122.691 120.573 122.751 120.534 122.739 119.55C122.733 119.06 122.948 118.843 123.385 118.885C124.029 118.949 124.67 119.063 125.31 119.191C125.645 119.258 125.693 119.502 125.616 119.822C125.39 120.753 125.454 120.85 126.401 120.932C127.606 121.037 128.363 121.053 127.939 120.001Z" fill="#38A1FF"/>
<path d="M109.55 115.02C109.961 114.745 110.423 114.554 110.909 114.458C111.394 114.363 111.894 114.364 112.379 114.463C112.864 114.562 113.324 114.756 113.734 115.034C114.143 115.311 114.493 115.668 114.764 116.082C115.443 117.072 115.754 118.268 115.643 119.463C115.532 120.658 115.007 121.777 114.158 122.625C113.739 123.055 113.224 123.378 112.655 123.567C112.086 123.755 111.48 123.805 110.887 123.711C110.295 123.617 109.734 123.382 109.252 123.026C108.769 122.67 108.379 122.203 108.114 121.665C107.487 120.577 107.286 119.294 107.552 118.066C107.817 116.838 108.529 115.752 109.55 115.02ZM112.12 115.204C111.536 115.083 110.928 115.135 110.373 115.355C109.818 115.574 109.34 115.952 108.997 116.441C108.399 117.176 108.066 118.092 108.052 119.04C108.038 119.988 108.345 120.913 108.922 121.665C109.171 122.013 109.489 122.306 109.856 122.525C110.223 122.745 110.631 122.886 111.056 122.94C111.48 122.994 111.911 122.96 112.321 122.84C112.732 122.72 113.113 122.516 113.441 122.242C115.885 120.241 115.236 115.857 112.12 115.204Z" fill="#191919"/>
<path d="M103.746 115.83C104.264 116.767 104.474 117.843 104.347 118.906C104.219 119.969 103.76 120.965 103.035 121.753C101.302 123.47 98.6311 122.785 97.7913 120.379C96.0392 115.368 101.313 111.872 103.746 115.83ZM103.352 116.494C103.205 116.096 102.96 115.742 102.64 115.463C102.321 115.184 101.936 114.989 101.522 114.897C101.108 114.804 100.678 114.817 100.27 114.933C99.8616 115.049 99.4892 115.266 99.1863 115.563C98.5269 116.238 98.1134 117.114 98.0122 118.052C97.911 118.989 98.1279 119.934 98.6281 120.733C100.869 123.931 105.148 120.555 103.352 116.494Z" fill="#191919"/>
<path d="M110.129 63.5909C110.177 64.7928 110.094 65.9963 109.881 67.1801C109.562 69.4082 108.011 70.4145 109.872 71.1331C110.556 71.3975 110.837 72.0528 110.007 72.1711C109.703 72.1905 109.398 72.1415 109.115 72.0277C108.833 71.9139 108.579 71.7383 108.373 71.5136C108.167 71.2889 108.013 71.021 107.924 70.7294C107.835 70.4378 107.813 70.13 107.858 69.8285C107.901 69.5393 107.994 69.26 108.135 69.0037C108.963 67.6479 108.83 66.121 109.333 62.5914C109.369 62.3435 109.883 60.4333 110.129 63.5909Z" fill="#191919"/>
<path d="M114.523 73.1418C113.162 75.6072 109.131 74.8389 109.702 73.7723C109.899 73.4047 112.289 75.1725 114.297 72.0504C114.523 71.7641 115.469 70.809 114.523 73.1418Z" fill="#191919"/>
<path d="M116.438 61.5197C116.467 61.6043 116.463 61.6968 116.425 61.778C116.388 61.8592 116.32 61.9227 116.237 61.9553C116.154 61.9879 116.061 61.987 115.978 61.9528C115.896 61.9187 115.829 61.8539 115.793 61.7721C115.064 61.1198 114.312 60.0178 113.29 60.5157C112.67 60.817 112.379 60.1955 113.009 59.8905C114.559 59.138 116.113 60.42 116.438 61.5197Z" fill="#191919"/>
<path d="M114.041 63.3486C114.309 63.3861 114.557 63.5136 114.743 63.7101C114.929 63.9067 115.042 64.1606 115.065 64.4303C115.068 64.7039 114.963 64.9678 114.774 65.165C114.584 65.3623 114.325 65.4771 114.051 65.4848C112.865 65.472 112.82 63.372 114.041 63.3486Z" fill="#191919"/>
<path d="M107.683 60.273C106.984 60.3303 106.333 60.6538 105.865 61.1769C105.496 61.9723 105.192 61.4827 105.327 60.8326C105.536 59.824 107.252 59.1928 108.208 59.5958C108.834 59.6621 109.294 60.4914 107.683 60.273Z" fill="#191919"/>
<path d="M107.479 64.586C107.496 64.7047 107.488 64.8258 107.456 64.9411C107.423 65.0565 107.365 65.1634 107.288 65.2548C107.21 65.3461 107.113 65.4198 107.005 65.4707C106.896 65.5217 106.778 65.5488 106.658 65.5502C106.538 65.5516 106.419 65.5273 106.309 65.4789C106.199 65.4305 106.101 65.3592 106.021 65.2697C105.942 65.1802 105.882 65.0746 105.846 64.9601C105.81 64.8455 105.8 64.7247 105.815 64.6056C105.816 63.1135 107.485 63.2483 107.479 64.586Z" fill="#191919"/>
<path d="M42.8978 72.2639C42.2675 72.3755 41.6182 72.2956 41.0337 72.0346C40.4493 71.7736 39.9565 71.3434 39.6189 70.7996C39.0204 70.0081 38.6197 69.0851 38.4499 68.1075C38.1561 66.1491 40.0317 67.2722 42.2281 67.7874C43.1878 68.0134 44.1587 68.1843 45.1334 68.3403C45.9823 68.4758 46.2843 68.863 45.9778 69.6645C45.6743 70.2888 45.2435 70.8426 44.713 71.2903C44.1825 71.738 43.5642 72.0696 42.8978 72.2639ZM39.6332 68.3259C39.7186 68.9168 39.9735 69.4703 40.3669 69.9193C40.7603 70.3684 41.2755 70.6937 41.85 70.8561C42.3123 70.908 42.7799 70.828 43.1987 70.6254C43.6175 70.4228 43.9704 70.1059 44.2167 69.7112C42.6997 69.2524 41.1563 68.7862 39.6332 68.3259Z" fill="#191919"/>
<path d="M45.7401 66.0255C44.901 66.5671 44.1952 66.2763 44.9115 65.3129C45.1933 64.9007 45.3709 64.4263 45.4291 63.9304C45.4874 63.4346 45.4245 62.9319 45.2459 62.4657C44.1974 58.9254 42.9109 55.1592 42.8454 54.7193C42.8213 54.5642 42.9079 54.2877 43.0148 54.244C43.1037 54.2251 43.196 54.2294 43.2827 54.2566C43.3694 54.2838 43.4476 54.3329 43.5097 54.3992C44.6318 56.91 45.6125 59.4815 46.4474 62.1018C46.7507 62.7485 46.8456 63.4734 46.7189 64.1764C46.5922 64.8793 46.2501 65.5255 45.7401 66.0255Z" fill="#191919"/>
<path d="M49.1588 55.0605C49.2605 55.9726 48.7189 55.7158 48.4989 55.4243C48.3762 55.2616 46.8742 54.1633 46.0976 54.4835C45.5598 54.7599 45.016 54.2221 45.5545 53.6105C46.7853 52.2132 49.0322 53.9306 49.1588 55.0605Z" fill="#191919"/>
<path d="M39.5614 60.4055C38.8127 60.4055 38.436 59.6033 38.436 59.0497C38.436 58.4298 38.6439 57.5342 39.2789 57.5342C41.0001 57.5372 41.1929 60.4055 39.5614 60.4055Z" fill="#191919"/>
<path d="M47.5001 59.9532C46.1691 59.9283 46.1119 57.4855 47.3841 57.3485C48.7588 57.2008 48.8966 59.9803 47.5001 59.9532Z" fill="#191919"/>
<path d="M39.6715 54.3474C39.2134 54.358 38.7657 54.4856 38.3709 54.7182C37.9761 54.9508 37.6475 55.2806 37.4163 55.6761C37.0042 56.4618 36.7383 55.579 36.776 55.4773C36.8237 55.0163 37.0266 54.5853 37.3515 54.2548C37.6954 53.9099 38.1274 53.6661 38.6003 53.5497C39.0733 53.4334 39.5691 53.449 40.0338 53.5949C40.8842 53.7795 40.8646 54.3422 39.6715 54.3474Z" fill="#191919"/>
<path d="M30.8204 121.33C29.8066 121.33 28.7867 121.337 27.7592 121.33C27.6277 121.343 27.4951 121.327 27.37 121.285C27.2449 121.242 27.1301 121.174 27.0331 121.085C26.9361 120.995 26.8591 120.886 26.8071 120.764C26.755 120.643 26.7291 120.512 26.7311 120.38C26.6866 119.842 26.6829 119.294 26.6829 118.755C26.6726 118.638 26.6872 118.519 26.7256 118.407C26.764 118.296 26.8254 118.194 26.9059 118.107C26.9863 118.021 27.084 117.952 27.1926 117.906C27.3012 117.86 27.4183 117.837 27.5363 117.838C28.5991 117.797 29.6612 117.824 30.8204 117.824V121.33Z" fill="#191919"/>
<path d="M33.0119 120.98C32.6534 120.786 32.3084 120.568 31.9401 120.412C31.7736 120.321 31.6327 120.189 31.5305 120.029C31.4282 119.868 31.3678 119.685 31.3547 119.495C31.3417 119.306 31.3764 119.116 31.4558 118.943C31.5352 118.77 31.6566 118.62 31.809 118.507C32.1856 118.286 32.5367 118.022 33.0142 117.696L33.0119 120.98Z" fill="#191919"/>
<path d="M43.5085 120.312H44.1194V121.097C43.4452 121.127 42.7764 121.156 42.0728 121.19V120.448L42.8924 120.355C42.7131 120.084 42.5963 119.894 42.4705 119.705C41.3836 118.075 41.5667 118.575 41.868 117.916C42.0088 118.037 42.2318 118.13 42.2807 118.279C42.4103 118.678 42.5858 119.027 43.0423 119.033C43.5273 119.042 43.6448 118.649 43.7646 118.261C43.8128 118.111 43.9906 118.005 44.1141 117.885C44.4034 118.417 44.621 118.063 43.7601 119.582C43.6441 119.786 43.4882 119.97 43.3526 120.164C43.4016 120.215 43.4528 120.263 43.5085 120.312Z" fill="#191919"/>
<path d="M43.5661 117.003C43.5959 117.368 43.5894 117.735 43.5465 118.099C43.5029 118.312 43.2558 118.487 43.1051 118.676C42.9063 118.507 42.5545 118.351 42.5334 118.162C42.4428 117.357 42.4085 116.547 42.431 115.737C42.4363 115.562 42.8076 115.242 42.95 115.271C43.0767 115.309 43.1928 115.376 43.2889 115.467C43.3849 115.558 43.4582 115.67 43.5029 115.795C43.5555 116.195 43.5639 116.599 43.5277 117L43.5661 117.003Z" fill="#191919"/>
<path d="M131.266 34.1836C130.755 33.8679 131.228 32.3411 131.31 30.9198C131.433 28.8009 133.997 28.4341 134.458 29.9104C134.791 30.9763 135.113 32.0459 135.394 33.1268C135.418 33.2649 135.414 33.4065 135.383 33.5431C135.351 33.6797 135.292 33.8086 135.21 33.9222C134.987 34.267 134.67 34.5409 134.296 34.7118C133.922 34.8827 133.508 34.9435 133.101 34.8871C132.46 34.7365 131.843 34.4999 131.266 34.1836ZM133.089 30.1808C132.272 30.1236 132.145 30.9258 132.274 31.7521C132.349 32.2229 132.575 32.6161 133.099 32.6643C133.475 32.6982 133.844 32.1837 133.894 31.6549C133.96 30.9077 133.842 30.2351 133.089 30.1808ZM132.876 34.0465C132.424 33.6194 132.065 33.2751 131.649 32.8774C131.572 33.6262 132.003 34.048 132.872 34.048L132.876 34.0465ZM134.781 33.7165C134.706 33.6344 134.619 33.5471 134.542 33.4642C134.316 33.6902 134.095 33.9109 133.878 34.1338C133.94 34.2016 134.003 34.2747 134.071 34.3425C134.3 34.1353 134.54 33.9267 134.778 33.7211L134.781 33.7165Z" fill="#38A1FF"/>
<path d="M112.403 121.757C111.665 121.694 110.981 121.636 110.294 121.573V120.836H111.147C110.982 120.545 110.877 120.35 110.771 120.152C109.899 118.545 110.071 119.01 110.373 118.406C110.499 118.542 110.698 118.659 110.749 118.818C110.971 119.546 111.406 119.815 111.889 119.444C112.04 119.328 112.092 119.084 112.224 118.93C112.36 118.797 112.51 118.678 112.67 118.576C112.901 119.234 113.231 118.78 111.564 120.855C111.962 120.918 112.17 120.952 112.452 120.996C112.432 121.229 112.417 121.467 112.403 121.757Z" fill="#191919"/>
<path d="M112.087 118.623C112.058 118.987 111.845 119.31 111.472 119.215C111.344 119.157 111.232 119.068 111.147 118.956C111.061 118.845 111.004 118.714 110.981 118.575C110.954 117.863 110.998 117.149 111.112 116.446C111.161 116.314 111.242 116.197 111.347 116.104C111.452 116.011 111.579 115.945 111.715 115.912C112.078 115.867 112.22 116.189 112.195 116.547C112.058 118.455 112.118 118.239 112.087 118.623Z" fill="#191919"/>
<path d="M101.432 116.879C101.365 117.873 101.307 118.752 101.248 119.666C100.54 119.613 99.8852 119.569 99.2352 119.515C99.1471 119.516 99.06 119.497 98.9795 119.461C98.899 119.426 98.8269 119.373 98.7679 119.308C98.7089 119.242 98.6643 119.165 98.6369 119.082C98.6096 118.998 98.6002 118.909 98.6092 118.822C98.5693 116.565 98.5979 116.879 101.432 116.879Z" fill="#191919"/>
<path d="M102.809 119.604C102.362 119.25 101.626 119.212 101.659 118.45C101.69 117.732 101.775 117.625 102.959 117.062C102.907 117.934 102.853 118.77 102.809 119.604Z" fill="#191919"/>
<path d="M132.872 34.047C132.004 34.047 131.572 33.6251 131.645 32.8779C132.062 33.2756 132.421 33.6154 132.872 34.047Z" fill="#191919"/>
<path d="M134.778 33.7211C134.541 33.9297 134.306 34.1384 134.068 34.347C134.004 34.2792 133.942 34.2062 133.874 34.1384C134.1 33.9124 134.32 33.6925 134.538 33.4688C134.62 33.5486 134.696 33.6307 134.778 33.7211Z" fill="#191919"/>
<path d="M47.9169 42.1241C47.635 41.8702 47.3352 41.6369 47.0198 41.4259C45.2513 40.3727 43.1604 39.9979 41.1362 40.3713C30.3506 42.2544 24.632 54.8645 25.7897 65.1424C26.027 67.2515 26.7418 64.4969 26.9542 61.6888C27.1135 58.4508 27.8715 55.2704 29.1899 52.3087C30.9841 48.5154 33.2686 45.1288 37.1539 43.1508C40.5901 41.4003 44.1093 40.5386 47.9169 42.1241ZM56.2982 72.0948C56.1626 70.2637 55.4697 70.6109 55.2972 71.0644C55.0373 71.7536 54.84 72.4609 54.608 73.1592C53.2273 77.3208 49.7812 83.529 46.125 86.5608C43.8238 88.4688 41.4767 89.7071 40.957 90.4581C41.1777 90.5801 41.2914 90.8581 42.2375 90.553C44.8988 89.6652 47.2725 88.0782 49.1101 85.9582C51.5859 83.1224 53.5964 79.9119 55.0667 76.4463C55.7907 75.1034 56.2111 73.618 56.2982 72.0948ZM44.2057 93.4364C44.22 93.4801 44.2275 93.5215 44.2419 93.5697C45.5819 93.6013 46.9014 93.2369 48.0352 92.522C51.7024 90.3484 54.7542 87.2749 56.9016 83.5923C57.0427 83.2791 57.0783 82.9287 57.0033 82.5935C56.9717 82.4797 56.9135 82.375 56.8335 82.2882C56.7535 82.2013 56.6539 82.1348 56.543 82.0941C55.2309 81.7928 55.542 85.3082 47.0311 91.5096C46.1114 92.1845 45.1473 92.7962 44.2057 93.4364ZM54.9213 55.0505C54.3579 55.1914 54.9966 54.4125 53.9052 63.1026C53.6792 64.8682 53.2491 66.6045 52.9591 68.3648C52.7911 69.3839 52.3286 70.3586 52.5072 71.4403C52.59 71.9397 52.7738 71.9254 53.1135 71.7167C53.3895 71.518 53.6232 71.2664 53.8009 70.9764C53.9786 70.6865 54.0967 70.364 54.1485 70.0279C55.6625 64.0841 55.5111 61.9901 55.2829 56.3257C55.2142 55.8876 55.0928 55.4594 54.9213 55.0505ZM41.4805 83.9056C41.4805 83.8379 41.4805 83.7648 41.4858 83.697C40.021 83.2333 38.587 82.6775 37.1923 82.0331C34.7323 80.7977 32.7462 78.7885 31.5392 76.3145C31.2296 75.6546 31.0692 74.9233 30.7701 74.2529C30.4493 73.535 30.0011 73.4567 29.742 74.3282C29.5975 74.9755 29.6886 75.653 29.9988 76.2392C31.1197 78.9001 33.0692 81.1284 35.5577 82.5927C37.9952 84.0849 39.8045 84.2408 41.4805 83.9056ZM31.1611 92.4564C30.8461 92.0654 30.4901 91.7093 30.099 91.3944C28.2939 90.33 26.2631 89.7068 24.1718 89.5753C23.5178 89.5241 22.8659 89.6971 22.3233 90.0656C21.4194 90.6155 22.0973 91.1533 22.6389 91.1134C26.6838 90.8106 30.56 93.4823 31.1641 92.4564H31.1611Z" fill="#191919"/>
<path d="M54.9061 48.7742C56.1813 52.2075 55.8906 54.2774 56.1384 54.8951C57.3255 57.856 57.51 62.8327 57.3873 65.7342C57.2306 69.3671 58.7431 68.0851 59.1815 73.6741C59.3513 75.8597 59.1346 78.0582 58.5412 80.1685C58.3972 81.0814 58.3719 82.009 58.4659 82.9284C58.4659 83.2952 59.0602 83.6319 60.7799 85.4849C61.4051 86.1628 61.7395 86.6148 62.7729 87.8056L62.8897 89.392C62.7426 89.6163 62.6081 89.8487 62.4867 90.088C61.8647 91.6573 60.9478 93.093 59.7856 94.3174C58.3072 95.7436 56.647 96.9684 54.8481 97.9601C49.9995 100.712 45.9162 99.5261 44.6379 99.7792C42.2803 100.245 38.8824 101.883 34.3893 100.497C29.6349 99.0297 28.0388 95.7011 26.4396 94.4334C24.8864 93.2026 22.9958 92.945 21.0698 92.9201C20.0657 92.6942 19.0549 92.4622 18.0508 92.2294C19.5527 90.0578 21.0178 91.1041 22.1228 88.0361C23.7799 83.4414 21.7567 81.9831 20.886 63.2266C20.6321 60.3256 20.7855 57.4033 21.3417 54.5448C22.6764 48.8842 25.5418 44.2518 30.6103 41.1815C38.9412 36.1356 51.4073 39.3542 54.9061 48.7742ZM51.1813 61.8264C50.8371 58.2613 50.749 55.6182 49.1536 53.6778C47.6271 51.7244 45.8953 49.9405 43.9879 48.3569C43.3243 47.8297 42.0294 48.3629 41.2815 48.7546C38.249 50.223 35.66 52.4692 33.7784 55.2641C32.8874 56.4443 32.2888 57.8189 32.0317 59.2751C31.8522 60.6968 31.789 62.1307 31.8426 63.5626C32.2381 69.7813 35.4318 73.1061 40.5154 76.3285C40.8798 76.5504 41.3139 76.6283 41.7327 76.547C42.5494 76.3741 43.3314 76.0661 44.0466 75.6355C49.0497 72.2392 51.1354 67.9088 51.1813 61.8264ZM47.9168 42.1239C47.6348 41.8699 47.335 41.6366 47.0197 41.4256C45.2512 40.3724 43.1603 39.9977 41.1361 40.3711C30.3504 42.2542 24.6318 54.8642 25.7896 65.1421C26.0268 67.2512 26.7417 64.4966 26.9541 61.6885C27.1133 58.4505 27.8713 55.2701 29.1897 52.3084C30.9839 48.5151 33.2685 45.1285 37.1537 43.1505C40.59 41.4 44.1091 40.5383 47.9168 42.1239ZM56.2981 72.0946C56.1625 70.2634 55.4695 70.6107 55.297 71.0641C55.0372 71.7533 54.8398 72.4606 54.6078 73.1589C53.2271 77.3205 49.781 83.5287 46.1248 86.5605C43.8237 88.4685 41.4766 89.7068 40.9568 90.4578C41.1775 90.5798 41.2913 90.8578 42.2373 90.5527C44.8987 89.6649 47.2724 88.0779 49.1099 85.9579C51.5858 83.1221 53.5963 79.9116 55.0665 76.446C55.7906 75.1031 56.211 73.6177 56.2981 72.0946ZM44.2056 93.4361C44.2199 93.4798 44.2274 93.5212 44.2417 93.5694C45.5817 93.6011 46.9012 93.2366 48.035 92.5217C51.7022 90.3481 54.754 87.2746 56.9014 83.592C57.0425 83.2789 57.0782 82.9284 57.0031 82.5932C56.9716 82.4794 56.9134 82.3747 56.8334 82.2879C56.7533 82.201 56.6538 82.1345 56.5429 82.0938C55.2307 81.7925 55.5418 85.3079 47.031 91.5093C46.1113 92.1842 45.1471 92.7959 44.2056 93.4361ZM54.9212 55.0502C54.3577 55.1911 54.9965 54.4122 53.905 63.1024C53.6791 64.868 53.249 66.6042 52.959 68.3645C52.791 69.3836 52.3285 70.3583 52.507 71.44C52.5899 71.9394 52.7737 71.9251 53.1134 71.7164C53.3894 71.5177 53.623 71.2661 53.8007 70.9761C53.9784 70.6862 54.0966 70.3638 54.1483 70.0277C55.6623 64.0838 55.5109 61.9898 55.2827 56.3255C55.2141 55.8873 55.0927 55.4592 54.9212 55.0502ZM41.4803 83.9054C41.4803 83.8376 41.4803 83.7645 41.4856 83.6967C40.0209 83.233 38.5868 82.6773 37.1921 82.0328C34.7322 80.7974 32.746 78.7882 31.5391 76.3142C31.2295 75.6544 31.069 74.923 30.77 74.2526C30.4491 73.5347 30.0009 73.4564 29.7418 74.3279C29.5974 74.9752 29.6884 75.6527 29.9987 76.2389C31.1195 78.8998 33.0691 81.1281 35.5576 82.5925C37.9951 84.0846 39.8044 84.2406 41.4803 83.9054ZM31.1609 92.4561C30.846 92.0651 30.4899 91.709 30.0989 91.3941C28.2938 90.3298 26.263 89.7065 24.1716 89.575C23.5177 89.5238 22.8658 89.6968 22.3232 90.0654C21.4193 90.6152 22.0972 91.153 22.6388 91.1131C26.6837 90.8103 30.5598 93.4821 31.1639 92.4561H31.1609Z" fill="#38A1FF"/>
</svg>
